<svg width="75" height="73" viewBox="0 0 75 73" fill="none" xmlns="http://www.w3.org/2000/svg">
<g clip-path="url(#clip0_14_54)">
<path d="M46.9578 36.1417C46.9578 41.0189 43.004 44.9696 38.1299 44.9696C33.2558 44.9696 29.3021 41.0158 29.3021 36.1417C29.3021 31.2646 33.2558 27.3139 38.1299 27.3139C43.0071 27.3139 46.9578 31.2676 46.9578 36.1417Z" fill="#5B7EC1"/>
<path d="M52.616 42.8171C43.7064 62.15 29.9953 74.8348 21.997 71.1474C13.9956 67.4601 14.7343 48.7992 23.6469 29.4664C32.5565 10.1335 46.2675 -2.55129 54.2659 1.13607C62.2673 4.82343 61.5286 23.4842 52.616 42.8171Z" stroke="white" stroke-width="0.999038" stroke-miterlimit="10"/>
<path d="M50.1789 25.6912C64.1261 41.7757 70.0356 59.492 63.3814 65.2622C56.7272 71.0324 40.0251 62.6738 26.0779 46.5893C12.1307 30.5048 6.22128 12.7885 12.8785 7.01829C19.5327 1.24809 36.2348 9.6067 50.182 25.6912H50.1789Z" stroke="white" stroke-width="0.999038" stroke-miterlimit="10"/>
<path d="M32.0388 21.4014C51.7138 13.2729 70.3898 13.2819 73.7532 21.4226C77.1166 29.5632 63.896 42.7536 44.221 50.8821C24.5461 59.0106 5.8701 59.0015 2.50668 50.8609C-0.856749 42.7203 12.3639 29.5299 32.0388 21.4014Z" stroke="white" stroke-width="0.999038" stroke-miterlimit="10"/>
<path d="M3.76607 48.2967C3.76607 49.3381 2.92143 50.1797 1.88303 50.1797C0.841613 50.1797 0 49.3351 0 48.2967C0 47.2583 0.841613 46.4137 1.88303 46.4137C2.92143 46.4137 3.76607 47.2583 3.76607 48.2967Z" fill="#D66767"/>
<path d="M66.2544 64.1996C66.2544 65.241 65.4097 66.0826 64.3713 66.0826C63.3329 66.0826 62.4883 65.238 62.4883 64.1996C62.4883 63.1612 63.3329 62.3165 64.3713 62.3165C65.4127 62.3165 66.2544 63.1612 66.2544 64.1996Z" fill="#EBAE3D"/>
<path d="M59.1975 3.86677C59.1975 4.90819 58.3529 5.7498 57.3145 5.7498C56.2761 5.7498 55.4314 4.90516 55.4314 3.86677C55.4314 2.82838 56.2761 1.98373 57.3145 1.98373C58.3559 1.98373 59.1975 2.82838 59.1975 3.86677Z" fill="#569989"/>
</g>
<defs>
<clipPath id="clip0_14_54">
<rect width="74.7704" height="72.2804" fill="white"/>
</clipPath>
</defs>
</svg>
