<?xml version="1.0" encoding="UTF-8"?>
<!DOCTYPE svg PUBLIC "-//W3C//DTD SVG 1.1//EN" "http://www.w3.org/Graphics/SVG/1.1/DTD/svg11.dtd">
<!-- Creator: CorelDRAW -->
<svg xmlns="http://www.w3.org/2000/svg" xml:space="preserve" width="19.783mm" height="19.1242mm" version="1.1" style="shape-rendering:geometricPrecision; text-rendering:geometricPrecision; image-rendering:optimizeQuality; fill-rule:evenodd; clip-rule:evenodd"
viewBox="0 0 246.98 238.75"
 xmlns:xlink="http://www.w3.org/1999/xlink"
 xmlns:xodm="http://www.corel.com/coreldraw/odm/2003">
 <defs>
  <style type="text/css">
   <![CDATA[
    .str0 {stroke:#212A3D;stroke-width:3.3;stroke-miterlimit:10}
    .fil1 {fill:none;fill-rule:nonzero}
    .fil4 {fill:#569989;fill-rule:nonzero}
    .fil0 {fill:#5B7EC1;fill-rule:nonzero}
    .fil2 {fill:#D66767;fill-rule:nonzero}
    .fil3 {fill:#EBAE3D;fill-rule:nonzero}
   ]]>
  </style>
 </defs>
 <g id="Слой_x0020_1">
  <metadata id="CorelCorpID_0Corel-Layer"/>
  <g id="_1272992715728">
   <path class="fil0" d="M155.11 119.38c0,16.11 -13.06,29.16 -29.16,29.16 -16.1,0 -29.16,-13.06 -29.16,-29.16 0,-16.11 13.06,-29.16 29.16,-29.16 16.11,0 29.16,13.06 29.16,29.16z"/>
   <path class="fil1 str0" d="M173.8 141.43c-29.43,63.86 -74.72,105.76 -101.14,93.58 -26.43,-12.18 -23.99,-73.82 5.45,-137.68 29.43,-63.86 74.72,-105.76 101.14,-93.58 26.43,12.18 23.99,73.82 -5.45,137.68z"/>
   <path class="fil1 str0" d="M165.75 84.86c46.07,53.13 65.59,111.65 43.61,130.71 -21.98,19.06 -77.15,-8.55 -123.22,-61.68 -46.07,-53.13 -65.59,-111.65 -43.6,-130.71 21.98,-19.06 77.15,8.55 123.22,61.68z"/>
   <path class="fil1 str0" d="M105.83 70.69c64.99,-26.85 126.68,-26.82 137.79,0.07 11.11,26.89 -32.56,70.46 -97.55,97.31 -64.99,26.85 -126.68,26.82 -137.79,-0.07 -11.11,-26.89 32.56,-70.46 97.55,-97.31z"/>
   <path class="fil2" d="M12.44 159.53c0,3.44 -2.79,6.22 -6.22,6.22 -3.44,0 -6.22,-2.79 -6.22,-6.22 0,-3.43 2.78,-6.22 6.22,-6.22 3.43,0 6.22,2.79 6.22,6.22z"/>
   <path class="fil3" d="M218.85 212.06c0,3.44 -2.79,6.22 -6.22,6.22 -3.43,0 -6.22,-2.79 -6.22,-6.22 0,-3.43 2.79,-6.22 6.22,-6.22 3.44,0 6.22,2.79 6.22,6.22z"/>
   <path class="fil4" d="M195.54 12.77c0,3.44 -2.79,6.22 -6.22,6.22 -3.43,0 -6.22,-2.79 -6.22,-6.22 0,-3.43 2.79,-6.22 6.22,-6.22 3.44,0 6.22,2.79 6.22,6.22z"/>
  </g>
 </g>
</svg>
