<svg width="72" height="79" viewBox="0 0 72 79" fill="none" xmlns="http://www.w3.org/2000/svg">
<g clip-path="url(#clip0_13_37)">
<path d="M25.3015 28.8424C16.8558 25.9645 1.3932 43.9097 1.3932 43.9097L1.02035 47.7328L25.3032 28.8408L25.3015 28.8424Z" fill="url(#paint0_linear_13_37)"/>
<path d="M26.3494 28.3796C20.8503 23.494 31.4889 4.31031 31.4889 4.31031L36.9814 2.37271L26.3494 28.3796Z" fill="url(#paint1_linear_13_37)"/>
<path d="M21.8638 31.0228L0.341992 47.1901L0.000350952 48.8067L24.569 33.0989L21.8638 31.0228Z" fill="#3D7E6E"/>
<path d="M21.8638 31.0228L27.0968 25.6679L28.6703 26.574L22.8821 32.3134L21.8638 31.0228Z" fill="#3D7E6E"/>
<path d="M36.0353 0.774062L27.0968 25.6679L28.3911 26.7891L37.6532 0L36.0353 0.774062Z" fill="#3D7E6E"/>
<path d="M22.8821 32.3134L0.000350952 48.8067L34.6343 79L57.3633 61.3155L22.8821 32.3134Z" fill="#569989"/>
<path d="M63.025 56.9824L57.3616 61.3172L36.2226 43.5365L33.675 41.3952L31.4806 39.5424L28.7968 37.2837L22.8821 32.3118L28.3911 26.7891L33.9247 31.6176L36.942 34.2429L38.5713 35.6607L41.7233 38.4098L63.025 56.9824Z" fill="#3D7E6E"/>
<path d="M36.942 34.2429L31.4806 39.5424L28.7968 37.2838L33.9247 31.6176L36.942 34.2429Z" fill="#EBAE3D"/>
<path d="M41.7233 38.4098L36.2226 43.5365L33.675 41.3952L38.5713 35.6606L41.7233 38.4098Z" fill="#EBAE3D"/>
<path d="M37.5185 0.169464L28.3927 26.7907L63.0266 56.9824L71.9996 29.1732L37.5185 0.169464Z" fill="#569989"/>
<path d="M32.2838 73.4903L50.2036 58.9493L51.764 60.3785L33.8442 74.9178L32.2838 73.4903Z" fill="white"/>
<path d="M37.2442 29.033L44.5566 11.4512L49.0965 15.4193L41.7447 32.9539L37.2442 29.033Z" fill="white"/>
</g>
<defs>
<linearGradient id="paint0_linear_13_37" x1="12.5" y1="35.5" x2="7" y2="28" gradientUnits="userSpaceOnUse">
<stop stop-color="white"/>
<stop offset="1" stop-color="#A5A5A5"/>
</linearGradient>
<linearGradient id="paint1_linear_13_37" x1="28.5" y1="15" x2="21.5" y2="12.5" gradientUnits="userSpaceOnUse">
<stop stop-color="white"/>
<stop offset="1" stop-color="#A5A5A5"/>
</linearGradient>
<clipPath id="clip0_13_37">
<rect width="72" height="79" fill="white"/>
</clipPath>
</defs>
</svg>
