<?xml version="1.0" encoding="UTF-8"?>
<!DOCTYPE svg PUBLIC "-//W3C//DTD SVG 1.1//EN" "http://www.w3.org/Graphics/SVG/1.1/DTD/svg11.dtd">
<!-- Creator: CorelDRAW -->
<svg xmlns="http://www.w3.org/2000/svg" xml:space="preserve" width="16.7103mm" height="15.7992mm" version="1.1" style="shape-rendering:geometricPrecision; text-rendering:geometricPrecision; image-rendering:optimizeQuality; fill-rule:evenodd; clip-rule:evenodd"
viewBox="0 0 184.47 174.41"
 xmlns:xlink="http://www.w3.org/1999/xlink"
 xmlns:xodm="http://www.corel.com/coreldraw/odm/2003">
 <defs>
  <style type="text/css">
   <![CDATA[
    .fil3 {fill:#BC504D;fill-rule:nonzero}
    .fil0 {fill:#D4D6E2;fill-rule:nonzero}
    .fil4 {fill:#D66767;fill-rule:nonzero}
    .fil1 {fill:#EFF0F4;fill-rule:nonzero}
    .fil2 {fill:white;fill-rule:nonzero}
   ]]>
  </style>
 </defs>
 <g id="Слой_x0020_1">
  <metadata id="CorelCorpID_0Corel-Layer"/>
  <g id="_1275009950688">
   <g>
    <g>
     <path class="fil0" d="M76.85 53.1c0,0 -24.37,-43 -51.87,-53.1l6.47 28.08 45.4 25.02z"/>
     <path class="fil1" d="M76.85 53.1c0,0 -26.55,-41.77 -58.32,-44.77l-13.76 16.5 60.29 47.8 8.39 -5.41 3.4 -14.11z"/>
    </g>
    <g>
     <polygon class="fil1" points="152.15,9.39 160.86,37.13 156.5,47.21 153.74,31 "/>
     <path class="fil2" d="M73.45 67.22l3.4 -14.11c0,0 30.62,-37.8 75.29,-43.71l2.45 24.21 -81.14 33.62z"/>
    </g>
   </g>
   <path class="fil3" d="M73.45 67.22c0,0 -34.06,-45.1 -73.45,-44.32l42.94 116.21c0,0 26.21,1.59 60.18,35.26l-29.67 -107.16z"/>
   <g>
    <path class="fil4" d="M103.12 174.38c-2.36,2.25 -29.67,-107.16 -29.67,-107.16 0,0 28.68,-31.58 87.4,-40.66l23.61 118.06c0,0 -55.31,4.94 -81.35,29.77z"/>
    <path class="fil2" d="M95.36 72.63c15.11,-14.17 32.02,-23.1 51.65,-24l6.92 31.35c-19.02,2.27 -34.65,12.78 -48.73,24.49l-9.84 -31.83z"/>
   </g>
  </g>
 </g>
</svg>
