<?xml version="1.0" encoding="UTF-8"?>
<!DOCTYPE svg PUBLIC "-//W3C//DTD SVG 1.1//EN" "http://www.w3.org/Graphics/SVG/1.1/DTD/svg11.dtd">
<!-- Creator: CorelDRAW -->
<svg xmlns="http://www.w3.org/2000/svg" xml:space="preserve" width="20.8084mm" height="23.0122mm" version="1.1" style="shape-rendering:geometricPrecision; text-rendering:geometricPrecision; image-rendering:optimizeQuality; fill-rule:evenodd; clip-rule:evenodd"
viewBox="0 0 438.35 484.78"
 xmlns:xlink="http://www.w3.org/1999/xlink"
 xmlns:xodm="http://www.corel.com/coreldraw/odm/2003">
 <defs>
  <style type="text/css">
   <![CDATA[
    .fil1 {fill:#3D7E6E;fill-rule:nonzero}
    .fil2 {fill:#569989;fill-rule:nonzero}
    .fil3 {fill:#EBAE3D;fill-rule:nonzero}
    .fil0 {fill:white;fill-rule:nonzero}
   ]]>
  </style>
 </defs>
 <g id="Слой_x0020_1">
  <metadata id="CorelCorpID_0Corel-Layer"/>
  <g id="_1272741348480">
   <path class="fil0" d="M154.04 176.99c-51.42,-17.66 -145.56,92.46 -145.56,92.46l-2.27 23.46 147.84 -115.93z"/>
   <path class="fil0" d="M160.42 174.15c-33.48,-29.98 31.29,-147.7 31.29,-147.7l33.44 -11.89 -64.73 159.59z"/>
   <g>
    <polygon class="fil1" points="133.11,190.37 2.08,289.58 -0,299.5 149.58,203.11 "/>
    <polygon class="fil1" points="133.11,190.37 164.97,157.51 174.55,163.07 139.31,198.29 "/>
    <polygon class="fil1" points="219.39,4.75 164.97,157.51 172.85,164.39 229.24,0 "/>
   </g>
   <polygon class="fil2" points="139.31,198.29 -0,299.5 210.86,484.78 349.24,376.26 "/>
   <polygon class="fil1" points="383.71,349.67 349.23,376.27 220.53,267.16 205.02,254.02 191.66,242.65 175.32,228.79 139.31,198.28 172.85,164.39 206.54,194.02 224.91,210.13 234.83,218.83 254.02,235.7 "/>
   <polygon class="fil3" points="224.91,210.13 191.66,242.65 175.32,228.79 206.54,194.02 "/>
   <polygon class="fil3" points="254.02,235.7 220.53,267.16 205.02,254.02 234.83,218.83 "/>
   <polygon class="fil2" points="228.42,1.04 172.86,164.4 383.72,349.67 438.35,179.02 "/>
   <polygon class="fil0" points="196.55,450.97 305.65,361.74 315.15,370.51 206.05,459.73 "/>
   <polygon class="fil0" points="226.75,178.16 271.27,70.27 298.91,94.62 254.15,202.22 "/>
  </g>
 </g>
</svg>
