<?xml version="1.0" encoding="UTF-8"?>
<!DOCTYPE svg PUBLIC "-//W3C//DTD SVG 1.1//EN" "http://www.w3.org/Graphics/SVG/1.1/DTD/svg11.dtd">
<!-- Creator: CorelDRAW -->
<svg xmlns="http://www.w3.org/2000/svg" xml:space="preserve" width="65.4595mm" height="65.4595mm" version="1.1" style="shape-rendering:geometricPrecision; text-rendering:geometricPrecision; image-rendering:optimizeQuality; fill-rule:evenodd; clip-rule:evenodd"
viewBox="0 0 2927.06 2927.06"
 xmlns:xlink="http://www.w3.org/1999/xlink"
 xmlns:xodm="http://www.corel.com/coreldraw/odm/2003">
 <defs>
  <style type="text/css">
   <![CDATA[
    .fil6 {fill:none}
    .fil5 {fill:#402625}
    .fil1 {fill:#B3D0F8}
    .fil0 {fill:#CD5348}
    .fil4 {fill:#DA7444}
    .fil3 {fill:#FFDB8D}
    .fil2 {fill:white}
   ]]>
  </style>
 </defs>
 <g id="Слой_x0020_1">
  <metadata id="CorelCorpID_0Corel-Layer"/>
  <g id="_1272738644896">
   <g>
    <path class="fil0" d="M934.02 243.74l541.11 1227.77 506.88 -1242.95c0,0 -582.88,-241.55 -1047.99,15.19z"/>
    <path class="fil1" d="M2701.75 927.87l-1226.62 543.64 506.88 -1242.95c0,0 480.19,170.15 719.74,699.32z"/>
    <path class="fil2" d="M225.97 963.16l1250.73 504.49 -542.68 -1223.91c0,0 -440.7,121.65 -708.05,719.42z"/>
    <path class="fil3" d="M236.98 2004.78l1235.75 -538.75 -1246.75 -502.88c0,0 -216.39,518.58 11,1041.63z"/>
    <path class="fil1" d="M967.76 2688.39l496.19 -1218.52 -1226.97 534.92c0,0 269.4,533.55 730.78,683.6z"/>
    <path class="fil2" d="M2005.33 2684.67l-532.61 -1218.63 -504.96 1222.35c0,0 517.66,240.65 1037.57,-3.72z"/>
    <path class="fil1" d="M2714.7 1969.26l-1238 -501.61 528.63 1217.02c0,0 441.47,-156.2 709.37,-715.41z"/>
    <path class="fil3" d="M2701.75 927.87l-1221.32 541.29 1234.27 500.11c0,0 206.96,-614.79 -12.95,-1041.39z"/>
   </g>
   <g>
    <path class="fil4" d="M1677.17 15.88c799.53,117.99 1352.01,861.78 1234.01,1661.3 -117.99,799.51 -861.77,1351.99 -1661.3,1234 -799.51,-118 -1351.99,-861.78 -1234,-1661.29 118,-799.52 861.78,-1352 1661.29,-1234.01zm-9.82 66.51c762.79,112.57 1289.89,822.19 1177.32,1584.98 -112.57,762.79 -822.19,1289.89 -1584.98,1177.32 -762.78,-112.57 -1289.88,-822.19 -1177.31,-1584.98 112.57,-762.79 822.19,-1289.89 1584.97,-1177.32z"/>
    <path class="fil5" d="M1667.2 83.5c762.17,112.48 1288.84,821.52 1176.36,1583.69 -112.48,762.17 -821.51,1288.84 -1583.69,1176.36 -762.16,-112.48 -1288.84,-821.52 -1176.36,-1583.69 112.48,-762.17 821.52,-1288.85 1583.69,-1176.36zm-9.36 63.4c727.16,107.31 1229.63,783.77 1122.32,1510.94 -107.31,727.15 -783.77,1229.62 -1510.93,1122.31 -727.15,-107.31 -1229.63,-783.77 -1122.31,-1510.93 107.31,-727.16 783.77,-1229.63 1510.93,-1122.32z"/>
   </g>
   <circle class="fil5" transform="matrix(1.06967 0.157862 -0.157862 1.06967 1463.54 1463.53)" r="295.3"/>
   <circle class="fil6" transform="matrix(0.926551 0.13674 -0.13674 0.926551 1460.95 1465.45)" r="295.3"/>
   <circle class="fil4" transform="matrix(0.926551 0.13674 -0.13674 0.926551 1460.95 1465.45)" r="295.3"/>
  </g>
 </g>
</svg>
