<?xml version="1.0" encoding="UTF-8"?>
<!DOCTYPE svg PUBLIC "-//W3C//DTD SVG 1.1//EN" "http://www.w3.org/Graphics/SVG/1.1/DTD/svg11.dtd">
<!-- Creator: CorelDRAW -->
<svg xmlns="http://www.w3.org/2000/svg" xml:space="preserve" width="25.1145mm" height="22.5704mm" version="1.1" style="shape-rendering:geometricPrecision; text-rendering:geometricPrecision; image-rendering:optimizeQuality; fill-rule:evenodd; clip-rule:evenodd"
viewBox="0 0 2322.54 2087.27"
 xmlns:xlink="http://www.w3.org/1999/xlink"
 xmlns:xodm="http://www.corel.com/coreldraw/odm/2003">
 <defs>
  <style type="text/css">
   <![CDATA[
    .fil8 {fill:#22213F;fill-rule:nonzero}
    .fil16 {fill:#31409B;fill-rule:nonzero}
    .fil15 {fill:#4150D8;fill-rule:nonzero}
    .fil14 {fill:#8196C9;fill-rule:nonzero}
    .fil10 {fill:#B7130B;fill-rule:nonzero}
    .fil3 {fill:#BF4B6F;fill-rule:nonzero}
    .fil13 {fill:#C7D1EA;fill-rule:nonzero}
    .fil0 {fill:#E26988;fill-rule:nonzero}
    .fil18 {fill:#E29700;fill-rule:nonzero}
    .fil11 {fill:#E6ECFF;fill-rule:nonzero}
    .fil9 {fill:#EA2A21;fill-rule:nonzero}
    .fil1 {fill:#ED7E97;fill-rule:nonzero}
    .fil2 {fill:#F490AA;fill-rule:nonzero}
    .fil12 {fill:#F5F8FF;fill-rule:nonzero}
    .fil4 {fill:#FC9DB8;fill-rule:nonzero}
    .fil5 {fill:#FFA6BD;fill-rule:nonzero}
    .fil6 {fill:#FFB8CC;fill-rule:nonzero}
    .fil17 {fill:#FFCA3B;fill-rule:nonzero}
    .fil7 {fill:white;fill-rule:nonzero}
   ]]>
  </style>
 </defs>
 <g id="Слой_x0020_1">
  <metadata id="CorelCorpID_0Corel-Layer"/>
  <g id="_1274317619936">
   <path class="fil0" d="M1514.5 1456.68c0,3.91 -0.97,8.79 -1.95,12.71 -11.72,45.92 -23.45,91.83 -36.15,136.77 0,0 -64.48,68.39 -157.29,41.03l9.77 -68.39 14.65 -139.71 0 0c4.88,-47.87 47.87,-82.06 94.77,-77.17 46.89,4.88 81.08,46.9 76.19,94.76z"/>
   <path class="fil1" d="M1380.66 1960.79l-0.35 0c20.59,-72.26 40.58,-144.88 59.94,-216.88 23.43,-92.81 53.73,-195.4 74.24,-287.23 13.69,-111.36 -162.17,-128.95 -171.94,-17.59 -18.56,182.69 -40.05,381.01 -63.5,562.72 -0.78,7.86 0.5,14.83 3.25,20.84 25.71,80.88 242.81,59.2 262.48,12.38 0.97,-2.93 0.97,-5.85 0.97,-8.79 -9.77,-55.68 -149.46,-64.48 -165.1,-65.45z"/>
   <path class="fil2" d="M1544.79 2035.03c-0.99,0 -0.99,0 0,0 0,0 -60.57,-39.07 -170.97,-50.8 -2.92,0 -5.86,-0.98 -8.79,-0.98 -17.59,-1.95 -28.34,-20.51 -21.49,-36.14l105.51 -237.4 -8.79 34.2c-19.53,72.29 -39.07,144.58 -59.59,216.88 15.64,0.97 155.34,9.77 165.1,65.45 0,2.94 0,5.86 -0.97,8.79z"/>
   <path class="fil0" d="M1543.8 2035.03c-20.5,48.85 -255.95,70.34 -264.74,-24.42 0.97,0 1.95,0 1.95,0 0,0 98.67,65.46 262.79,24.42z"/>
   <path class="fil0" d="M924.43 1579.78l8.79 81.08c-101.61,34.2 -143.62,-3.9 -143.62,-3.9l-13.67 -49.83c-11.73,-45.92 -24.42,-90.85 -36.15,-136.77 -11.72,-45.92 15.63,-93.78 62.52,-105.52 45.92,-11.72 93.79,15.64 105.52,62.52 0.97,3.91 1.95,7.82 1.95,12.71l0 0.97 14.66 138.73z"/>
   <path class="fil1" d="M973.28 2004.75c0,-0.51 -0.01,-0.77 -0.15,-1.16 -23.39,-183.33 -44.83,-379.26 -63.36,-565.48 -13.68,-121.14 -198.31,-87.92 -169.98,30.29 22.46,87.93 48.85,186.59 72.3,274.52 19.34,72.75 39.33,144.89 59.91,216.89 -0.11,0 -0.18,0 -0.32,0 -15.62,0.97 -155.34,10.75 -165.1,65.45 -8.79,53.74 242.27,85 264.76,-5.86 0.22,-1.15 0.45,-2.29 0.67,-3.45 0.88,-3.47 1.37,-7.19 1.29,-11.2z"/>
   <path class="fil2" d="M908.79 1971.53c3.91,9.77 -2.92,19.53 -13.68,19.53 -4.88,0 -9.77,0 -14.66,0 -109.41,1.95 -173.89,34.2 -173.89,34.2 9.77,-54.71 149.47,-64.48 165.09,-65.46 -20.51,-72.29 -40.05,-144.59 -59.58,-216.88l-8.79 -34.19 105.51 262.8 0 0z"/>
   <path class="fil0" d="M971.33 2019.4c-22.48,90.86 -273.55,59.6 -264.76,5.86 0,0.97 142.64,45.92 264.76,-5.86z"/>
   <path class="fil3" d="M1426.92 1371.79c-12.27,0 -24.48,2.4 -35.33,7.3 -24.09,10.88 -38.71,32.44 -41.19,60.69 -22.73,223.71 -43.51,407.86 -63.53,563.04 -0.58,5.85 0.3,11.5 2.59,16.55 0.13,0.29 0.24,0.58 0.34,0.88 12.7,39.93 78.06,47.12 105.56,48.35 69.77,3.15 133.32,-16.91 142.02,-36.33 0.44,-1.5 0.49,-3.28 0.5,-5.32 -7.26,-36.15 -89.12,-53.99 -157.48,-58.3l-0.09 0c-2.48,0 -4.8,-1.17 -6.29,-3.14 -1.49,-1.97 -1.97,-4.52 -1.29,-6.9 19.28,-67.73 39.45,-140.66 59.91,-216.76 8.89,-35.2 19,-72.65 28.76,-108.87 16.04,-59.47 32.64,-120.98 45.31,-177.65 3.32,-27.91 -6.38,-51.75 -27.33,-67.17 -14.63,-10.77 -33.64,-16.4 -52.47,-16.4zm-17.51 712.86c-4.98,0 -9.9,-0.1 -14.75,-0.32 -64.85,-2.91 -108.43,-24.35 -119.73,-58.85 -3.32,-7.5 -4.57,-15.71 -3.72,-24.44 20.04,-155.28 40.8,-339.27 63.5,-562.74 2.99,-34.06 20.89,-60.22 50.38,-73.56 32.97,-14.91 74.62,-10.59 103.62,10.76 25.84,19 37.76,48.18 33.58,82.14 -0.03,0.26 -0.06,0.51 -0.13,0.76 -12.76,57.12 -29.43,118.94 -45.56,178.7 -9.75,36.16 -19.84,73.55 -28.72,108.74 -19.59,72.8 -38.85,142.6 -57.35,207.75 52.44,4.1 153.76,18.82 162.97,71.29 0.07,0.44 0.11,0.9 0.11,1.36 0,3.35 0,7.14 -1.38,11.28 -0.06,0.19 -0.14,0.37 -0.21,0.55 -12.55,29.93 -80.89,46.58 -142.62,46.58z"/>
   <path class="fil3" d="M826.64 1369.87c-20.96,0 -42.29,7.32 -57.8,20.87 -21.1,18.43 -28.7,45.36 -21.4,75.82 21.09,82.54 46.03,176.01 68.02,258.5l4.23 15.83c18.63,70.04 38.2,140.95 59.86,216.76 0.68,2.37 0.2,4.93 -1.29,6.9 -1.49,1.98 -3.82,3.14 -6.29,3.14 -55.14,3.43 -150.66,19.73 -157.67,58.96 -0.99,6.02 6.5,12.33 11.04,15.54 38.24,27.01 154.07,42.95 209.87,12.23 20.94,-11.52 31.04,-28.39 30.04,-50.13 -21.42,-167.98 -42.72,-358.2 -63.33,-565.38 -3.5,-30.96 -19.69,-53.61 -45.57,-63.65 -9.31,-3.63 -19.47,-5.37 -29.71,-5.37zm24.6 717.4c-53.61,0 -109.03,-13.9 -134.95,-32.22 -16.72,-11.8 -18.74,-23.41 -17.48,-31.06 9.53,-53.38 117.24,-67.69 162.95,-71.36 -20.64,-72.41 -39.4,-140.45 -57.29,-207.68l-4.21 -15.83c-22.02,-82.52 -46.97,-176.04 -68.1,-258.77 -8.77,-36.56 0.59,-69 26.33,-91.47 27.74,-24.24 69.38,-31.59 103.58,-18.32 31.62,12.27 51.33,39.5 55.53,76.67 20.61,207.27 41.93,397.45 63.35,565.37 0.02,0.19 0.04,0.39 0.05,0.6 1.42,28 -11.78,50.48 -38.16,65 -24.54,13.52 -57.71,19.07 -91.59,19.07z"/>
   <path class="fil4" d="M2201.29 1099.12c0,146.54 -119.19,265.73 -265.73,265.73 -2.93,0 -6.84,0 -9.77,0 -31.27,111.37 -133.84,193.44 -255.96,193.44 -48.85,0 -94.76,-12.7 -133.83,-36.15 -48.86,66.43 -127,109.42 -214.93,109.42 -70.35,0 -133.84,-27.36 -180.73,-71.32 -47.88,43.96 -111.38,71.32 -180.74,71.32 -83.04,0 -157.3,-38.1 -206.13,-97.69 -34.2,15.63 -71.32,24.42 -111.37,24.42 -105.51,0 -196.36,-61.55 -239.35,-149.47 -2.92,-6.84 -6.84,-13.68 -8.79,-21.49l0 0c-6.83,0.98 -14.66,2.93 -21.48,3.9 -9.77,0.98 -20.52,1.95 -31.27,1.95 -105.51,0 -196.37,-61.54 -239.34,-150.44 -16.61,-35.17 -26.38,-74.25 -26.38,-116.26 0,-47.87 12.7,-91.83 34.19,-130.91 -35.16,-44.94 -55.68,-101.6 -55.68,-163.14 0,-122.13 83.04,-225.67 195.39,-256.94 -6.83,-23.44 -9.77,-47.87 -9.77,-73.27 0,-146.54 119.19,-265.73 265.73,-265.73 37.12,0 73.27,7.81 105.52,21.49 20.51,-127 129.93,-224.69 262.79,-224.69 86.96,0 164.13,42 212.98,106.48l0 0c45.92,-79.13 137.76,-131.88 235.45,-131.88 138.73,0 253.02,106.49 264.75,242.27 26.37,-8.79 54.71,-13.68 84.02,-13.68 146.54,0 265.73,119.19 265.73,265.74 0,1.95 0,3.9 0,6.83 20.52,4.89 40.05,11.73 57.63,20.51 88.91,42.99 149.48,133.84 149.48,239.35 0,46.9 -11.73,90.86 -33.22,128.96 54.69,48.86 90.84,121.16 90.84,201.26z"/>
   <path class="fil5" d="M2078.87 978.21c0,146.54 -119.19,265.74 -265.74,265.74 -2.93,0 -6.84,0 -9.77,0 -31.27,111.37 -133.83,193.44 -255.95,193.44 -48.85,0 -94.77,-12.7 -133.83,-36.15 -48.85,66.43 -127.01,109.42 -214.94,109.42 -70.33,0 -133.84,-27.36 -180.73,-71.32 -47.87,43.96 -111.36,71.32 -180.73,71.32 -83.04,0 -157.3,-38.1 -206.14,-97.69 -34.18,15.63 -71.31,24.42 -111.36,24.42 -42,0 -81.08,-9.77 -116.25,-26.38 0,0 0.98,-15.63 -8.79,-21.5 -45.92,-30.28 -103.55,-70.33 -123.09,-122.11l0 0c-18.56,3.91 -39.07,5.86 -58.62,4.89 -39.07,-0.98 -77.17,-10.75 -110.39,-26.38 -16.61,-35.17 -26.38,-74.24 -26.38,-116.25 0,-47.87 12.7,-91.83 34.2,-130.91l0 0c-35.17,-44.94 -55.68,-101.6 -55.68,-163.15 0,-122.12 83.04,-225.67 195.39,-256.93 -6.83,-23.45 -9.77,-47.87 -9.77,-73.27 0,-146.54 119.19,-265.73 265.74,-265.73 37.12,0 73.27,7.81 105.51,21.49 20.52,-127.01 129.93,-224.7 262.8,-224.7 86.96,0 164.13,42.01 212.98,106.49 1.95,0 3.91,0 5.86,0 45.92,-79.13 131.89,-131.88 229.59,-131.88 138.72,0 253.02,106.48 264.75,242.27 26.37,-8.79 54.7,-13.67 84.01,-13.67 146.54,0 265.74,119.19 265.74,265.73l0 0c0,1.95 0,3.9 0,6.84 20.52,4.88 40.05,11.72 57.64,20.51 16.6,35.17 26.37,74.24 26.37,116.25 0,46.9 -11.72,90.86 -33.22,128.95 54.69,47.88 90.85,120.17 90.85,200.27z"/>
   <path class="fil6" d="M1934.58 503.19c-88.9,-287.22 -369.27,-207.11 -369.27,-207.11 0,0 -30.29,-152.4 -198.32,-198.32 -167.06,-44.94 -272.56,100.63 -272.56,100.63 0,0 -87.93,-94.76 -234.47,-79.13 -146.54,15.64 -205.15,205.16 -205.15,205.16 0,0 -124.08,-42.99 -264.76,30.28 -139.71,73.27 -106.49,272.57 -106.49,272.57 -280.38,146.54 -178.78,365.37 -177.81,368.3 -35.16,-44.94 -55.67,-101.6 -55.67,-163.15 0,-122.12 83.04,-225.67 195.38,-256.93 -6.83,-23.45 -9.77,-47.88 -9.77,-73.27 0,-146.54 119.19,-265.74 265.73,-265.74 37.12,0 73.27,7.82 105.52,21.49 20.51,-127 129.93,-224.69 262.79,-224.69 86.96,0 164.13,42.01 212.98,106.49 1.95,0 3.9,0 5.87,0 45.92,-79.13 131.88,-131.89 229.58,-131.89 138.73,0 253.02,106.49 264.75,242.28 26.38,-8.79 54.71,-13.68 84.02,-13.68 148.48,0.99 267.67,120.18 267.67,266.72z"/>
   <path class="fil1" d="M1213.61 1500.64c-1.96,0 -3.91,-0.97 -5.87,-1.95 -3.9,-2.92 -3.9,-8.79 -0.98,-11.72 46.9,-57.64 0,-148.5 -0.97,-149.47 -1.95,-3.91 -0.98,-8.79 1.95,-10.75 74.24,-56.66 115.28,-119.19 124.07,-185.62 9.77,-82.07 -37.12,-141.66 -37.12,-142.64 -2.93,-3.9 -1.95,-8.79 0.98,-11.72 3.91,-2.93 8.79,-1.95 11.72,0.97 1.95,2.93 51.78,65.46 41.03,154.36 -8.79,69.37 -49.83,133.84 -125.05,192.46 10.75,23.45 42.99,104.54 -3.9,162.17 -0.98,2.94 -2.93,3.91 -5.85,3.91z"/>
   <path class="fil3" d="M1140.34 1552.37c1.92,0 3.86,0.71 5.37,2.12 47.6,44.62 109.87,69.19 175.36,69.19 81.71,0 159.68,-39.7 208.58,-106.2 2.4,-3.27 6.92,-4.17 10.39,-2.08 38.18,22.92 83.07,35.02 129.8,35.02 115.21,0 217.34,-77.17 248.36,-187.68 0.96,-3.39 4.06,-5.74 7.58,-5.74l9.77 0c142.19,0 257.86,-115.68 257.86,-257.86 0,-74.09 -32.15,-145.32 -88.21,-195.41 -2.76,-2.46 -3.42,-6.51 -1.61,-9.73 21.07,-37.34 32.2,-80.59 32.2,-125.09 0,-100.01 -55.57,-189.01 -145.03,-232.27 -16.75,-8.38 -35.57,-15.06 -56.02,-19.94 -3.56,-0.84 -6.05,-4.01 -6.05,-7.66l0 -6.84c0,-142.19 -115.68,-257.86 -257.87,-257.86 -27.67,0 -55.1,4.47 -81.52,13.28 -2.29,0.77 -4.8,0.43 -6.82,-0.89 -2.02,-1.32 -3.32,-3.5 -3.52,-5.91 -11.37,-131.82 -124.23,-235.08 -256.9,-235.08 -93.78,0 -183.53,50.22 -228.63,127.96 -1.32,2.28 -3.71,3.75 -6.33,3.91 -2.61,0.18 -5.17,-1.01 -6.76,-3.11 -49.76,-65.7 -125.1,-103.36 -206.7,-103.36 -127.35,0 -234.61,91.71 -255.02,218.07 -0.39,2.39 -1.84,4.47 -3.97,5.64 -2.11,1.17 -4.65,1.3 -6.87,0.35 -32.2,-13.65 -67.62,-20.86 -102.45,-20.86 -142.19,0 -257.86,115.67 -257.86,257.86 0,26 3.09,49.25 9.46,71.06 0.58,2.03 0.34,4.2 -0.68,6.04 -1.02,1.83 -2.74,3.19 -4.76,3.75 -111.66,31.06 -189.63,133.6 -189.63,249.35 0,58.41 18.67,113.15 54.02,158.29 1.93,2.49 2.21,5.88 0.69,8.65 -22.05,40.08 -33.23,82.84 -33.23,127.12 0,38.91 8.63,76.88 25.63,112.89 43.51,90 132.51,145.94 232.23,145.94 10.51,0 21.24,-0.98 30.48,-1.91 2.96,-0.43 6.49,-1.14 10.02,-1.85 3.8,-0.76 7.6,-1.51 11.14,-2.03 4,-0.53 7.79,1.97 8.76,5.89 1.2,4.81 3.32,9.31 5.56,14.09 0.98,2.08 1.95,4.14 2.83,6.21 42.92,87.76 134.08,144.69 232.12,144.69 37.31,0 73.68,-7.98 108.1,-23.71 3.24,-1.49 7.08,-0.6 9.36,2.16 49.38,60.26 122.3,94.82 200.04,94.82 64.49,0 126.8,-24.59 175.4,-69.24 1.52,-1.39 3.43,-2.08 5.35,-2.08zm180.73 87.06c-67.08,0 -131,-24.3 -180.79,-68.57 -50.7,44.28 -114.58,68.57 -180.67,68.57 -80.48,0 -156.07,-34.89 -208.35,-95.96 -34.86,15.06 -71.54,22.68 -109.15,22.68 -104,0 -200.72,-60.4 -246.43,-153.88 -0.98,-2.26 -1.87,-4.15 -2.77,-6.07 -1.5,-3.2 -3.04,-6.46 -4.36,-9.96 -1.24,0.24 -2.5,0.5 -3.75,0.75 -3.82,0.77 -7.65,1.53 -11.2,2.03 -9.95,1 -21.15,2.03 -32.38,2.03 -105.82,0 -200.24,-59.35 -246.45,-154.9 -18.03,-38.19 -27.16,-78.43 -27.16,-119.68 0,-45.29 11,-89.06 32.72,-130.17 -35.48,-47.13 -54.21,-103.69 -54.21,-163.89 0,-120.18 79.23,-226.92 193.63,-262.31 -5.39,-21.05 -8.01,-43.34 -8.01,-67.9 0,-150.86 122.75,-273.6 273.6,-273.6 33.67,0 67.84,6.35 99.47,18.44 25.45,-129.01 136.99,-221.65 268.84,-221.65 82.78,0 159.45,36.53 212.15,100.62 49.52,-76.9 140.96,-126.02 236.26,-126.02 137.51,0 254.93,104.55 271.58,239.77 25.14,-7.42 51.07,-11.16 77.18,-11.16 150.87,0 273.61,122.74 273.61,273.61l0 0.68c19.32,5 37.21,11.59 53.29,19.62 94.85,45.86 153.83,140.29 153.83,246.4 0,45.03 -10.77,88.9 -31.22,127.31 56.54,52.81 88.84,126.41 88.84,202.91 0,150.87 -122.74,273.61 -273.61,273.61l-3.87 0c-34.8,114.19 -141.62,193.43 -261.85,193.43 -47.11,0 -92.51,-11.63 -131.77,-33.7 -52.06,67.1 -132.63,106.96 -216.99,106.96z"/>
   <path class="fil1" d="M1422.67 422.11c56.66,19.54 110.39,14.66 119.19,-10.75 8.79,-26.37 -29.31,-63.5 -85.98,-83.04 -56.66,-19.54 -110.38,-14.66 -119.19,10.74 -8.79,25.4 29.32,62.53 85.98,83.05z"/>
   <path class="fil3" d="M1390.43 323.43c-3.9,0 -7.81,0 -10.75,0.98 -18.56,1.95 -31.27,7.81 -34.19,16.61 -2.93,8.79 2.92,21.48 16.61,35.17 15.63,14.66 38.1,28.33 64.48,37.12l0 0c26.38,8.79 52.75,13.68 74.25,11.73 18.56,-1.96 31.26,-7.82 34.19,-16.61 2.93,-8.79 -2.93,-21.49 -16.61,-35.17 -15.63,-14.66 -38.1,-28.34 -64.48,-37.13 -22.47,-7.81 -43.96,-12.7 -63.5,-12.7zm98.67 119.19c-21.49,0 -44.94,-4.88 -68.39,-12.7l0 0c-28.34,-9.77 -53.73,-24.42 -71.32,-41.03 -18.56,-18.56 -26.37,-37.12 -20.51,-52.76 5.86,-15.63 23.45,-26.37 48.84,-28.33 23.45,-1.95 52.76,1.95 81.09,11.72 28.33,9.77 53.73,24.42 71.32,41.03 18.56,18.56 26.37,37.13 20.51,52.76 -5.86,15.63 -23.45,26.37 -48.85,28.34 -3.91,0.97 -8.79,0.97 -12.7,0.97z"/>
   <path class="fil1" d="M864.83 434.8c55.69,-23.45 91.84,-63.5 81.09,-88.9 -10.75,-25.4 -64.49,-27.36 -120.17,-3.91 -55.68,23.45 -91.83,63.5 -81.08,88.91 10.75,25.39 64.48,27.35 120.16,3.9z"/>
   <path class="fil3" d="M899.03 334.18c-20.51,0 -44.94,5.86 -69.37,15.64 -54.7,23.44 -84.02,59.59 -76.19,77.17 7.81,17.59 53.73,22.47 108.44,-0.97 25.4,-10.75 47.87,-25.4 62.52,-41.03 12.7,-13.69 17.59,-27.36 13.68,-36.15 -3.9,-8.79 -16.61,-14.66 -35.17,-14.66 -1.96,0 -2.93,0 -3.91,0zm-107.46 125.05c-27.36,0 -47.88,-8.79 -55.69,-25.4 -12.7,-30.28 24.42,-74.24 85.98,-99.65 28.33,-11.72 56.66,-17.58 80.11,-17.58 26.37,0.97 43.96,9.77 50.8,25.39 6.83,15.64 0,35.17 -17.58,54.71 -16.61,17.59 -40.06,34.2 -68.4,45.92 -26.38,11.73 -52.76,16.61 -75.22,16.61z"/>
   <path class="fil1" d="M775.94 270.67c-1.95,0 -2.94,0 -4.89,-1.95 -3.91,-2.92 -4.88,-7.81 -1.96,-11.72 0.99,-0.98 68.39,-97.69 180.74,-49.83 3.9,1.95 6.84,6.84 4.88,11.72 -1.95,3.91 -6.83,6.84 -11.72,4.89 -99.65,-42.01 -157.3,40.05 -160.22,43.96 -1.95,0.97 -4.89,2.92 -6.83,2.92z"/>
   <path class="fil1" d="M861.91 1374.62c-19.54,0 -78.16,-5.86 -99.65,-72.3 -0.97,-4.88 0.98,-9.77 5.87,-10.74 4.88,-0.98 9.77,0.97 10.74,5.86 20.52,65.45 84.02,60.56 86.96,59.59 4.89,-0.98 8.79,2.93 9.77,7.81 0,4.88 -2.92,8.79 -7.81,9.77 -0.01,0 -1.96,0 -5.86,0z"/>
   <path class="fil1" d="M1469.56 1462.55c-11.73,0 -24.43,-1.96 -39.08,-7.82 -4.88,-1.95 -6.83,-6.83 -4.88,-10.75 1.95,-4.88 6.83,-6.83 10.74,-4.88 64.49,24.42 99.65,-29.31 100.63,-31.27 2.93,-3.9 7.82,-4.88 11.73,-2.93 3.9,2.93 4.88,7.82 2.93,11.73 0,0 -29.31,45.92 -82.06,45.92z"/>
   <path class="fil1" d="M562.97 1089.36c-0.99,0 -1.96,0 -2.94,-0.98 -0.97,0 -75.21,-29.31 -62.52,-111.36 0.97,-4.89 4.88,-7.82 9.77,-6.84 4.89,0.97 7.81,4.88 6.83,9.77 -10.75,68.39 48.86,91.83 50.81,91.83 4.88,1.95 6.83,6.84 4.88,10.75 -0.98,4.89 -3.91,6.84 -6.83,6.84z"/>
   <path class="fil1" d="M1733.34 1150.9c-4.89,0 -8.79,-3.9 -8.79,-7.81 0,-4.88 2.93,-8.79 7.81,-8.79 68.39,-3.9 78.16,-67.41 79.13,-70.34 0.98,-4.88 4.89,-7.81 9.77,-7.81 4.88,0.97 7.81,4.88 7.81,9.77 0,0.01 -11.74,80.11 -95.74,85 0.97,0 0.97,0 0,0z"/>
   <path class="fil1" d="M406.65 676.11c-4.88,0 -8.79,-3.9 -8.79,-8.79 -2.92,-113.32 84.02,-140.68 108.45,-146.54 8.79,-41.03 27.36,-72.29 54.71,-90.85 43.96,-29.31 93.78,-18.56 96.71,-18.56 4.88,0.97 7.81,5.86 6.83,9.77 -0.97,4.89 -5.85,7.81 -9.76,6.84 -0.99,0 -45.92,-8.79 -83.05,15.63 -25.39,16.61 -41.03,45.92 -48.84,85 -0.99,3.9 -3.91,6.83 -7.82,6.83 -3.9,0.98 -102.58,14.66 -99.65,129.93 -0.01,6.84 -3.91,10.75 -8.8,10.75l0 0z"/>
   <path class="fil1" d="M1976.59 722.02c-0.97,0 -1.95,0 -2.92,0 -4.89,-0.97 -6.84,-5.86 -5.86,-10.75l0 0c0,0 13.67,-44.94 -8.79,-84.02 -14.66,-26.37 -42.01,-44.94 -80.11,-55.68 -3.9,-0.98 -5.86,-3.9 -6.84,-7.81 0,-3.91 -5.86,-103.56 -120.16,-110.39 -4.89,0 -8.79,-3.91 -7.81,-8.79 0,-4.89 3.9,-8.79 8.79,-7.81 113.33,6.83 132.87,95.74 135.8,121.14 40.05,11.72 69.37,33.22 85.98,62.52 25.39,45.92 10.75,95.74 9.77,97.69 -0.99,1.95 -3.91,3.9 -7.82,3.9z"/>
   <path class="fil1" d="M894.14 1489.9c-4.87,0 -9.77,0 -13.68,-0.97 -35.16,-5.86 -58.61,-31.26 -67.41,-42.01 -113.32,25.4 -153.38,-85.97 -153.38,-86.95 -1.95,-4.88 0.97,-9.77 4.88,-10.75 4.89,-1.95 9.77,0.98 10.75,4.89 0.98,3.9 37.12,101.6 138.73,74.24 3.91,-0.98 7.81,0.98 9.77,3.9 0,0 21.5,33.22 59.6,39.08 25.39,3.9 53.73,-5.86 82.06,-30.29 3.91,-2.93 8.79,-2.93 11.73,0.98 2.92,3.9 2.92,8.79 -0.98,11.72 -28.33,25.41 -55.68,36.15 -82.07,36.15z"/>
   <path class="fil1" d="M1678.63 1461.57c-35.17,0 -62.52,-8.79 -63.5,-8.79 -4.88,-0.97 -6.83,-5.86 -5.85,-10.75 0.97,-4.88 5.85,-6.83 10.75,-5.86 5.86,1.95 135.8,42.01 175.85,-70.34 1.95,-4.88 6.83,-6.84 10.75,-4.88 4.88,1.95 6.83,6.83 4.88,10.75 -24.42,74.25 -85,89.88 -132.86,89.88z"/>
   <path class="fil1" d="M1948.26 882.24c-0.97,0 -1.94,0 -1.94,0 -4.89,-0.98 -6.84,-5.86 -5.86,-10.75 1.95,-5.86 38.09,-137.75 -75.22,-173.89 -4.89,-0.98 -6.84,-5.87 -5.87,-10.75 0.98,-4.88 5.87,-6.84 10.75,-5.86 128.96,42 86.96,193.43 86.96,195.39 -1.96,2.92 -4.89,5.85 -8.8,5.85z"/>
   <path class="fil1" d="M1278.08 552.04c-1.95,0 -2.93,0 -3.9,-0.98 -3.9,-1.95 -5.86,-7.81 -2.93,-11.72 59.6,-100.63 -55.68,-173.9 -60.57,-176.84 -2.92,-1.95 -3.9,-4.88 -3.9,-7.81 4.89,-61.54 -4.88,-107.46 -31.26,-134.81 -19.22,-20.7 -42.92,-25.74 -55.01,-26.96 -4.34,-0.44 -7.71,-3.93 -7.95,-8.28l0 0c-0.31,-5.35 4.19,-9.77 9.53,-9.28 15.23,1.37 42.76,7.18 65.15,31.81 28.34,30.29 41.04,78.15 36.15,142.64 22.46,15.63 122.13,94.76 61.55,197.34 -0.99,2.92 -3.92,4.88 -6.85,4.88z"/>
   <path class="fil7" d="M634.72 729.15c42.61,-106.74 149.06,-164.55 237.74,-129.14 88.69,35.41 126.04,150.64 83.42,257.37 -42.6,106.73 -149.05,164.55 -237.74,129.14 -88.69,-35.41 -126.05,-150.64 -83.42,-257.37z"/>
   <path class="fil8" d="M689.57 848.64c9.89,-71.09 67.73,-121.78 129.19,-113.24 61.47,8.55 103.28,73.11 93.39,144.2 -9.9,71.09 -67.74,121.78 -129.2,113.23 -61.47,-8.55 -103.28,-73.11 -93.38,-144.19z"/>
   <path class="fil7" d="M790.59 923.27c-6.84,16.61 -27.36,24.42 -46.9,16.61 -19.53,-7.81 -29.31,-27.36 -22.47,-43.96 6.85,-16.61 27.36,-24.42 46.9,-16.61 18.57,7.82 28.34,27.36 22.47,43.96z"/>
   <path class="fil7" d="M1664.95 713.23c44.94,105.52 9.77,221.77 -78.15,258.89 -87.93,37.12 -195.4,-17.59 -240.33,-123.1 -44.94,-105.51 -9.77,-221.76 78.15,-258.89 87.93,-37.11 195.4,17.6 240.33,123.1z"/>
   <path class="fil8" d="M1496.97 723.89c61.26,-9.95 120.25,39.41 131.76,110.26 11.5,70.84 -28.82,136.33 -90.07,146.29 -61.26,9.95 -120.26,-39.4 -131.76,-110.25 -11.51,-70.84 28.81,-136.34 90.07,-146.3z"/>
   <path class="fil7" d="M1443.18 882.24c-6.84,16.61 3.9,36.15 22.47,43.96 19.53,7.81 40.05,0 46.89,-16.61 6.84,-16.61 -3.9,-36.15 -22.46,-43.96 -19.54,-7.81 -40.05,0 -46.9,16.61z"/>
   <path class="fil3" d="M634.28 728.87l0 0zm183.66 -129.93c-25.4,0 -51.78,6.83 -77.17,20.51 -42.99,23.45 -78.16,63.5 -97.7,113.33l0 0c-19.53,49.82 -22.47,102.58 -6.83,149.47 14.66,45.92 45.92,80.1 85.97,96.71 40.05,16.61 85.97,12.7 128.95,-10.75 42.98,-23.44 78.16,-63.5 97.69,-113.32 41.04,-101.61 4.89,-212 -79.13,-246.19 -16.6,-6.85 -34.19,-9.77 -51.77,-9.77zm-44.94 406.4c-19.53,0 -39.07,-3.9 -57.63,-10.75 -44.94,-18.56 -79.12,-56.66 -95.73,-107.46 -16.62,-50.81 -13.69,-107.47 7.81,-161.2 21.49,-53.73 58.61,-96.71 105.5,-122.12 46.9,-25.4 97.7,-29.31 143.62,-11.73 92.8,37.13 132.86,157.3 88.9,268.66 -21.48,53.73 -58.62,96.72 -105.51,122.12 -29.32,14.66 -58.62,22.47 -86.96,22.47z"/>
   <path class="fil3" d="M1482.27 587.21c-18.57,0 -37.13,3.9 -54.71,10.75 -40.05,17.58 -70.35,51.78 -84.02,98.67 -13.69,46.9 -10.75,99.65 10.75,149.47 20.51,48.85 56.66,88.91 100.63,111.37 42.97,22.47 88.89,24.42 128.94,7.81 40.06,-17.58 70.35,-51.78 84.03,-98.67 13.68,-46.9 10.75,-99.65 -10.76,-149.47l0 0c-20.5,-48.85 -56.66,-88.91 -100.62,-111.37 -24.42,-12.7 -48.85,-18.56 -74.24,-18.56zm46.89 405.42c-27.36,0 -55.68,-6.83 -82.07,-20.51 -46.89,-24.42 -85.98,-66.43 -108.44,-119.19 -22.46,-52.76 -26.37,-110.39 -11.72,-161.2 15.63,-51.78 48.84,-89.88 93.78,-109.41 44.94,-19.54 95.74,-16.61 143.61,7.81 46.9,24.42 85.97,66.43 108.44,119.19l0 0c22.47,52.76 26.37,110.39 11.72,161.2 -15.63,51.78 -48.85,89.88 -93.77,109.41 -19.55,8.79 -40.06,12.7 -61.55,12.7z"/>
   <path class="fil9" d="M1515.49 1014.13c-135.8,0 -246.2,-110.39 -246.2,-246.19 0,-135.8 110.39,-246.19 246.2,-246.19 135.79,0 246.18,110.39 246.18,246.19 0,135.8 -110.39,246.19 -246.18,246.19zm-728.8 0c-135.8,0 -246.2,-110.39 -246.2,-246.19 0,-135.8 110.4,-246.19 246.2,-246.19 134.81,0 245.21,110.39 246.18,246.19 0.01,135.8 -110.38,246.19 -246.18,246.19zm728.8 -535.37c-147.83,0 -269.46,111.13 -286.17,254.44 -65.18,-28.74 -122.59,-14.85 -156.5,-0.36 -16.88,-143.13 -138.44,-254.08 -286.13,-254.08 -159.24,0 -288.2,128.95 -288.2,288.19 0,159.25 129.93,288.2 288.2,288.2 154.24,0 281.52,-122.5 287.88,-276.14 22.66,-12.32 83.44,-38.03 153.04,0.89 6.82,153.22 133.92,275.25 287.88,275.25 158.26,0 288.19,-128.95 288.19,-288.2 0,-159.23 -129.94,-288.19 -288.19,-288.19z"/>
   <path class="fil10" d="M786.68 529.63c-131.41,0 -238.33,106.9 -238.33,238.32 0,131.4 106.91,238.31 238.33,238.31 63.57,0 123.39,-24.81 168.45,-69.87 45.06,-45.06 69.86,-104.87 69.86,-168.44 -0.94,-131.38 -107.86,-238.32 -238.31,-238.32zm0 492.37c-140.1,0 -254.07,-113.97 -254.07,-254.06 0,-140.1 113.98,-254.07 254.07,-254.07 139.08,0 253.05,113.95 254.06,254 0,67.83 -26.45,131.62 -74.47,179.64 -48.04,48.02 -111.81,74.48 -179.58,74.48zm728.8 -492.37c-131.41,0 -238.32,106.9 -238.32,238.32 0,131.4 106.9,238.31 238.32,238.31 131.4,0 238.31,-106.9 238.31,-238.31 0,-131.41 -106.9,-238.32 -238.31,-238.32zm0 492.37c-140.1,0 -254.07,-113.97 -254.07,-254.06 0,-140.1 113.97,-254.07 254.07,-254.07 140.09,0 254.06,113.97 254.06,254.07 0,140.09 -113.98,254.06 -254.06,254.06zm-364.33 -270.55c24.16,0 51.58,5.51 80.29,21.57 2.39,1.33 3.9,3.8 4.03,6.53 6.67,150.13 129.66,267.73 280.01,267.73 154.56,0 280.31,-125.75 280.31,-280.33 0,-154.57 -125.75,-280.32 -280.31,-280.32 -142.25,0 -261.92,106.4 -278.35,247.48 -0.29,2.49 -1.74,4.69 -3.91,5.93 -2.17,1.24 -4.81,1.37 -7.08,0.37 -61.43,-27.09 -115.61,-15.12 -150.24,-0.32 -2.27,0.97 -4.88,0.81 -7.04,-0.43 -2.15,-1.24 -3.59,-3.42 -3.87,-5.89 -16.61,-140.89 -136.25,-247.14 -278.29,-247.14 -154.58,0 -280.33,125.75 -280.33,280.32 0,154.58 125.75,280.33 280.33,280.33 150.78,0 273.77,-117.98 280.01,-268.59 0.11,-2.77 1.68,-5.27 4.12,-6.59 14.59,-7.94 43.71,-20.64 80.34,-20.64zm364.33 311.58c-157.3,0 -286.25,-121.9 -295.5,-278.32 -60.32,-31.74 -113.88,-12.85 -137.76,-0.81 -8.86,156.89 -137.8,279.14 -295.53,279.14 -163.26,0 -296.08,-132.82 -296.08,-296.08 0,-163.25 132.82,-296.07 296.08,-296.07 146.61,0 270.62,107.15 292.56,250.9 35.57,-13.29 86.34,-21.83 143.62,0.24 21.84,-143.91 145.85,-251.14 292.61,-251.14 163.25,0 296.07,132.82 296.07,296.07 0,163.26 -132.82,296.08 -296.06,296.08z"/>
   <path class="fil1" d="M2256 1456.68c-63.5,56.66 -171.94,74.25 -265.73,59.6 -118.21,-26.38 -193.44,-26.38 -173.9,-116.25 47.87,-87.93 140.69,10.74 240.32,-1.96 271.59,-0.97 57.64,-242.27 -49.82,-325.32 -27.36,-20.51 -32.25,-59.59 -11.72,-85.97 74.23,-77.18 155.33,54.71 223.71,126.02 94.75,120.17 144.59,242.28 37.12,343.88z"/>
   <path class="fil0" d="M2102.61 1419.56c-106.48,21.49 -205.15,-53.73 -205.15,-53.73 30.29,12.7 95.74,31.27 160.22,31.27 43.96,0 87.93,-8.79 119.2,-35.17 11.71,-9.77 16.61,-20.52 16.61,-36.15 -1.96,-77.18 -119.2,-204.18 -184.65,-254 -27.36,-20.51 -32.25,-59.59 -11.72,-85.98 16.61,-21.49 43.96,-29.31 67.4,-21.49 -103.55,66.44 89.88,187.57 145.57,292.11 54.71,103.55 -0.98,142.63 -107.47,163.14z"/>
   <path class="fil2" d="M2256 1456.68c-50.81,42.99 -118.21,64.49 -198.32,64.49 -21.49,0 -43.95,-1.95 -66.43,-4.89 -77.18,-10.75 -137.75,-35.17 -139.71,-36.15 334.11,79.14 461.11,-87.92 423.01,-213.95 -37.12,-125.05 -207.11,-299.92 -210.04,-301.88 6.83,1.95 12.7,4.89 18.56,9.77 33.22,25.39 88.9,76.19 137.75,137.75 61.54,78.15 93.78,148.49 95.74,211.02 0.98,52.76 -20.52,99.65 -60.57,133.84z"/>
   <path class="fil3" d="M2056.7 1529.95c-21.48,0 -44.93,-1.95 -68.38,-4.88 -75.22,-10.75 -141.67,-37.12 -149.48,-40.05 -4.88,-1.95 -6.83,-6.84 -4.88,-11.73 1.96,-4.88 6.83,-6.83 10.75,-4.88 6.83,2.93 72.29,29.31 144.58,39.07 22.47,2.93 44.94,4.89 65.46,4.89 79.13,0 143.62,-21.49 193.44,-62.52 38.1,-32.24 57.63,-76.2 56.66,-127 -1.95,-60.57 -33.22,-129.93 -93.79,-206.13 -47.87,-60.57 -103.56,-111.37 -136.77,-135.8 -11.73,-8.79 -25.4,-11.73 -39.08,-9.77 -13.68,1.96 -26.37,8.79 -35.17,20.52 -17.58,23.44 -12.7,56.66 10.75,74.24 62.52,46.9 185.62,175.86 187.58,260.84 0.97,18.56 -4.89,31.27 -19.54,42.98 -80.11,68.39 -235.45,26.38 -288.2,4.89 -1.95,-0.98 -4.88,-1.95 -6.83,-1.95 -4.89,-0.98 -7.81,-5.86 -5.86,-10.75 0.97,-4.89 5.86,-7.81 10.74,-5.86 2.93,0.97 6.84,1.95 9.77,2.92 49.82,20.52 196.36,59.6 270.61,-2.92 9.77,-8.79 13.68,-16.61 12.7,-29.31 -1.95,-74.25 -119.19,-200.27 -180.73,-247.17 -31.27,-23.45 -37.12,-67.41 -13.68,-98.67 11.73,-14.66 27.36,-24.42 45.92,-27.35 18.56,-2.93 37.12,1.95 51.78,13.67 33.22,25.4 89.88,77.18 139.7,138.73 62.53,79.13 95.75,152.4 97.7,215.9 1.95,55.69 -20.52,104.54 -62.52,140.69 -49.82,43.95 -121.14,67.4 -203.2,67.4z"/>
   <path class="fil11" d="M1163.69 1309.17l0 479.68 -30.29 -8.79 -735.63 -210.04 0 -89.88 12.7 -17.58 207.11 -283.32c0,0 117.23,-18.56 253.02,0 100.63,14.65 212.98,49.83 293.08,129.93z"/>
   <path class="fil12" d="M1158.89 1703.86c0,0 -309.68,-317.51 -762.99,-223.72 -4.88,0.98 12.7,-17.58 12.7,-17.58 148.5,-59.6 450.37,-0.98 565.65,65.45 116.26,66.44 157.29,74.25 129.93,-98.67 -27.36,-171.94 -232.52,-248.15 -235.44,-249.13 101.6,13.68 213.95,48.85 295.04,128.95l-4.89 394.7z"/>
   <path class="fil13" d="M1132.52 1780.05l-735.64 -210.04 0 -30.29c-0.98,0 518.76,-9.77 735.64,240.32z"/>
   <path class="fil11" d="M1929.71 1480.13l0 89.88 -707.31 201.25 -59.6 16.6 0 -479.67c187.58,-185.62 547.1,-128.96 547.1,-128.96l219.81 300.9z"/>
   <path class="fil12" d="M1197 1719.48c0,0 116.25,-99.65 303.83,-166.08 187.56,-66.43 432.78,-48.85 432.78,-48.85l-2.93 -24.42c0,0 -484.56,-80.1 -757.13,236.42l23.45 2.93z"/>
   <path class="fil13" d="M1929.71 1539.73l0 30.28 -707.31 201.25c101.6,-71.31 333.13,-200.26 707.31,-231.53z"/>
   <path class="fil13" d="M1169.65 1703.86c0,0 309.68,-317.51 762.98,-223.72 4.89,0.98 -12.7,-17.58 -12.7,-17.58 -148.5,-59.6 -450.36,-0.98 -565.64,65.45 -116.26,66.44 -157.29,74.25 -129.93,-98.67 27.36,-171.94 232.51,-248.15 235.44,-249.13 -101.6,13.68 -213.96,48.85 -295.04,128.95l4.89 394.7z"/>
   <path class="fil14" d="M404.75 1564.08l729.93 208.41 20.24 5.88 0 -465.91c-66.47,-65.24 -162.79,-107.43 -286.34,-125.42 -120.68,-16.5 -227.9,-3.2 -247.48,-0.48l-205.15 280.63 -11.19 15.49 0 81.4 -0.01 0zm758.04 232.65c-0.73,0 -1.46,-0.11 -2.19,-0.31l-30.28 -8.79 -735.6 -210.03c-3.39,-0.96 -5.72,-4.05 -5.72,-7.56l0 -89.88c0,-1.66 0.53,-3.26 1.5,-4.61l12.7 -17.59 207.13 -283.34c1.23,-1.68 3.07,-2.81 5.13,-3.14 1.18,-0.18 119.95,-18.52 255.32,-0.03 128.5,18.71 228.59,63.17 297.59,132.17 1.48,1.47 2.3,3.48 2.3,5.57l0 479.68c0,2.48 -1.17,4.81 -3.14,6.3 -1.38,1.03 -3.04,1.58 -4.73,1.58z"/>
   <path class="fil14" d="M1170.67 1311.5l0 466 49.61 -13.83 701.55 -199.61 0 -81.36 -216.34 -296.14c-35.71,-4.89 -360.94,-43.87 -534.81,124.94zm-7.88 484.24c-1.69,0 -3.37,-0.55 -4.75,-1.61 -1.96,-1.48 -3.12,-3.81 -3.12,-6.27l0 -479.67c0,-2.1 0.84,-4.12 2.34,-5.6 188.23,-186.26 550.23,-131.71 553.84,-131.12 2.07,0.32 3.91,1.44 5.14,3.14l219.81 300.89c0.98,1.35 1.52,2.98 1.52,4.65l0 89.88c0,3.51 -2.33,6.61 -5.72,7.56l-707.3 201.25 -59.64 16.62c-0.69,0.19 -1.4,0.29 -2.12,0.29z"/>
   <path class="fil11" d="M1083.67 1763.81c0,0 72.29,-107.46 157.29,0 0,0 -72.29,92.81 -157.29,0z"/>
   <path class="fil14" d="M1093.97 1763.24c23.01,23.42 46.85,34.85 70.98,33.89 31.75,-1.21 56.32,-23.6 65.69,-33.51 -22.93,-27.21 -46.67,-40.61 -70.49,-39.65 -32.13,1.2 -57.04,27.97 -66.18,39.28zm68.2 49.7c-29.32,0 -57.68,-14.72 -84.31,-43.81 -2.45,-2.68 -2.76,-6.7 -0.73,-9.71 1.36,-2.02 33.72,-49.32 82.33,-51.19 30.61,-1.31 60.12,15.88 87.67,50.7 2.25,2.84 2.27,6.86 0.03,9.72 -1.34,1.73 -33.49,42.3 -81.46,44.22 -1.17,0.05 -2.34,0.06 -3.52,0.06z"/>
   <path class="fil15" d="M1162.79 1824.99c-31.26,0 -62.52,-10.75 -87.92,-32.25 -460.13,-134.81 -695.58,-203.2 -701.45,-205.15 -9.76,-2.93 -14.65,-13.68 -11.72,-23.45 2.92,-9.77 13.68,-14.65 23.45,-11.72 3.9,0.97 101.6,30.29 703.4,206.13 2.92,0.97 4.87,1.95 6.83,3.9l0.98 0.98c37.11,33.22 93.77,33.22 130.9,0 1.95,-1.95 4.89,-2.93 6.84,-3.91 319.46,-93.78 695.58,-203.2 705.35,-206.13 9.77,-2.92 20.51,1.96 23.44,11.73 2.94,9.77 -1.94,19.54 -11.72,23.44 -7.81,2.93 -534.39,156.32 -702.42,206.14 -24.43,19.54 -55.69,30.29 -85.99,30.29z"/>
   <path class="fil16" d="M379.35 1559.48c-1.79,0 -3.5,0.38 -5.03,1.13 -2.51,1.21 -4.3,3.27 -5.06,5.8 -0.86,2.86 -0.63,5.99 0.64,8.59 1.22,2.51 3.27,4.3 5.8,5.06 2.74,0.9 45.95,13.51 124.38,36.41 114.28,33.36 306.94,89.6 577.01,168.74 1.05,0.31 2.04,0.83 2.88,1.54 23.15,19.59 52.57,30.38 82.83,30.38 28.83,0 58.37,-10.41 81.07,-28.57 0.8,-0.63 1.7,-1.1 2.67,-1.4 84.9,-25.17 260.85,-76.65 416.09,-122.05 144.22,-42.19 280.44,-82.04 285.9,-83.93 5.78,-2.32 8.63,-7.9 6.86,-13.79 -1.6,-5.33 -7.72,-8.21 -13.64,-6.44 -2.52,0.76 -29.39,8.58 -73.35,21.4 -128.06,37.33 -394.45,114.99 -631.43,184.57 -0.35,0.16 -0.74,0.33 -1.13,0.51 -0.99,0.44 -2.51,1.12 -2.97,1.59 -40.63,36.36 -101.42,36.37 -141.73,0.31l-1.3 -1.3c-0.77,-0.76 -1.49,-1.23 -3.75,-1.98 -450.12,-131.52 -620.01,-181.6 -675.85,-198.05 -17.86,-5.26 -26,-7.67 -26.99,-7.93 -1.31,-0.4 -2.63,-0.58 -3.88,-0.58zm783.45 273.38c-33.43,0 -65.92,-11.71 -91.71,-33.01 -269.24,-78.88 -461.36,-134.97 -575.42,-168.26 -83.88,-24.49 -122.15,-35.67 -124.72,-36.52 -6.57,-1.97 -12.05,-6.68 -15.22,-13.19 -3.01,-6.21 -3.57,-13.31 -1.55,-20 2.03,-6.79 6.74,-12.28 13.26,-15.43 6.21,-3.01 13.32,-3.57 19.99,-1.56 0.76,0.18 5.41,1.55 27.25,7.99 55.82,16.45 225.71,66.53 676.08,198.13 3.48,1.16 6.89,2.59 10.19,5.88l1 1.01c33.99,30.38 85.76,30.4 120.08,-0.32 2.2,-2.22 5.19,-3.55 7.37,-4.52 0.43,-0.19 0.83,-0.37 1.2,-0.55 0.41,-0.2 0.84,-0.38 1.29,-0.51 237.17,-69.63 503.9,-147.38 632.08,-184.75 43.9,-12.8 70.72,-20.61 73.23,-21.36 14.23,-4.27 29.15,3.35 33.25,16.99 4.12,13.7 -2.76,27.59 -16.33,33.02 -4.11,1.54 -106.48,31.51 -287.08,84.34 -154.35,45.15 -329.16,96.29 -414.58,121.61 -25.26,19.74 -57.85,31.04 -89.67,31.04z"/>
   <path class="fil14" d="M1020.16 1487.95l0 0zm83.05 65.46c-4.88,0 -7.81,-3.9 -9.77,-5.86 -0.97,-0.98 -1.95,-1.95 -2.92,-2.93 -0.98,-0.97 -0.98,-1.95 -1.95,-1.95 -2.93,-4.88 -3.91,-7.81 -4.88,-8.79 -1.95,0.98 -3.91,0.98 -5.86,0.98 -2.94,-0.98 -4.89,-1.95 -5.87,-3.9 -4.88,-7.82 -11.72,-16.61 -18.56,-14.66 -1.95,0 -2.92,0.97 -4.88,0 -7.82,-1.95 -12.7,-8.79 -18.56,-16.61 -2.93,-3.9 -6.84,-9.77 -9.77,-11.73 0,0 -0.97,0.98 -0.97,1.95 -1.95,1.96 -3.9,2.93 -5.86,3.91 -2.93,0 -4.89,0 -6.84,-1.95 -0.98,-0.98 -2.93,0 -6.84,1.95 -5.85,2.92 -14.66,5.86 -23.44,1.95 -7.82,-3.9 -13.68,-11.73 -19.54,-26.37 -19.53,0 -39.08,-8.79 -58.61,-26.38l-0.98 -0.97c-11.72,-13.69 -23.45,-14.66 -38.1,-14.66 -7.81,0 -15.63,-0.98 -23.45,-2.93 -1.95,0 -2.92,-0.97 -3.9,-1.95 -15.63,-13.68 -31.26,-13.68 -49.83,-13.68 -5.86,0 -12.7,0 -18.56,0 -0.98,0 -0.98,0 -1.95,0 -3.9,-0.97 -8.79,-2.92 -12.7,-3.9 -21.49,-6.84 -42.01,-12.7 -62.52,-5.86 -19.54,10.75 -39.08,6.84 -55.69,2.93 -11.72,-2.93 -23.44,-4.89 -34.19,-2.93 -4.89,0.98 -9.77,-1.95 -10.75,-7.81 -0.98,-4.89 1.95,-9.77 7.81,-10.75 14.66,-2.93 28.34,0 42.01,2.93 16.61,2.92 30.29,5.86 43.96,-1.96 0,0 0.98,-0.97 1.95,-0.97 26.38,-9.77 52.76,-1.95 75.22,4.88 3.9,0.98 7.81,1.95 11.73,3.91 5.86,0 10.75,0 16.61,0 19.53,0 41.02,-0.98 61.54,16.61 5.86,0.97 11.73,0.97 17.59,1.95 16.61,0.97 34.19,1.95 51.77,21.49 17.59,15.63 34.2,22.46 50.81,20.51 3.9,0 7.81,1.95 9.77,5.86 5.86,17.58 10.75,20.51 11.73,21.49 1.95,0.97 3.9,0 8.79,-1.95 4.89,-1.96 10.75,-4.89 17.59,-2.93 2.93,-2.93 6.84,-3.91 10.75,-3.91l0 0c10.75,0 18.56,9.77 25.4,18.57 1.95,2.92 4.88,6.83 6.84,8.79 10.74,-1.96 21.48,3.9 31.26,17.58 1.95,0 2.92,0 4.88,0.98 7.82,1.95 13.69,9.77 17.59,17.58l0.97 0.98c3.91,0.97 6.84,4.88 6.84,8.79 0,6.84 -4.89,9.77 -6.84,9.77 -6.82,1.95 -7.81,1.95 -8.79,1.95z"/>
   <path class="fil14" d="M1388.47 1440.08l0 0zm-147.51 97.69l0 0c-4.89,0 -9.77,-3.91 -9.77,-8.79 0,-5.86 2.93,-8.79 4.89,-9.77 0.98,-0.98 2.93,-0.98 5.86,-0.98l0 0c0.98,-0.98 0.98,-1.95 1.95,-2.93 0.98,-0.97 1.95,-1.95 2.93,-2.92 6.84,-6.84 17.59,-17.59 32.25,-18.57 0.97,0 2.92,0 3.9,0.98 1.95,0 8.79,-5.86 12.7,-9.77 7.81,-6.83 16.61,-13.68 26.37,-16.61 6.84,-5.85 14.66,-11.72 24.42,-11.72 0.98,0 2.93,-0.97 3.91,-0.97 4.88,-0.98 8.79,-1.96 12.7,-5.87 1.95,-4.88 4.88,-10.74 10.75,-13.67 5.86,-2.93 11.73,0 14.65,0.97l0 0c0,0 0,-0.97 0.98,-0.97 7.81,-9.77 16.61,-8.79 21.49,-7.81 3.91,0 4.88,0 5.86,-0.98 2.92,-3.9 8.79,-3.9 12.7,-0.98 1.96,1.96 3.91,0.98 12.71,-4.88 1.95,-0.98 3.9,-1.95 5.86,-2.93 0,0 0.97,0 0.97,-0.97 2.92,-0.98 4.88,-2.93 7.81,-3.91 7.82,-3.9 16.61,-8.79 27.36,-7.81 0.97,0 0.97,0 1.95,0 2.93,0.98 7.82,-0.97 11.72,-2.93 3.91,-1.95 8.8,-3.9 14.66,-4.88 8.79,-4.89 21.49,-12.7 35.17,-8.79 1.95,-1.95 4.89,-3.9 7.82,-5.86 7.81,-5.86 15.63,-12.7 24.42,-14.66 12.7,-9.77 25.4,0.98 32.24,6.84 1.96,1.95 4.88,3.9 6.83,4.88 10.76,-5.86 22.47,-3.9 30.3,-1.95 2.92,0.98 5.86,0.98 8.79,1.95 4.87,0 10.74,0 16.6,0 6.84,0 14.66,-0.97 22.47,0 0.97,0 1.95,0.98 3.9,0.98 4.89,2.93 9.77,1.95 16.61,0.98 5.86,-0.98 11.72,-0.98 18.56,0 12.7,-1.96 28.34,-1.96 43.96,6.83 4.89,2.93 5.86,7.81 3.9,12.7 -2.92,4.89 -7.81,5.86 -12.7,3.91 -11.73,-6.84 -23.44,-5.86 -34.19,-3.91 -0.98,0 -2.93,0 -3.9,0 -3.91,-0.97 -8.79,-0.97 -13.69,0 -7.81,0.98 -16.61,1.95 -26.37,-2.92 -5.86,-0.98 -11.73,0 -17.59,0 -5.85,0 -11.72,0 -18.56,0 -3.9,0 -7.81,-0.98 -11.72,-1.96 -8.79,-1.95 -13.69,-2.92 -19.54,1.96 -1.95,1.95 -4.89,1.95 -7.81,1.95 -6.84,-0.98 -12.7,-5.86 -17.59,-9.77 -2.93,-1.95 -7.81,-5.86 -8.79,-5.86 0,0 0,0 -0.97,0.98 -1.95,1.95 -3.9,2.93 -5.86,2.93 -4.88,0 -10.75,5.86 -16.62,10.75 -3.9,3.9 -8.79,7.81 -13.68,9.77 -2.92,1.95 -5.85,1.95 -8.79,0 -6.83,-2.93 -13.67,0 -24.41,6.83 -0.98,0.98 -2.93,0.98 -4.89,0.98 -2.92,0 -6.83,1.95 -10.75,2.93 -6.83,2.93 -14.66,5.86 -23.44,3.9 -3.91,0 -9.77,2.93 -15.64,5.86 -2.93,1.95 -5.85,2.93 -9.77,4.89 -0.98,0.97 -2.93,1.95 -3.9,2.92 -6.84,4.89 -17.59,10.75 -27.36,7.82 -5.87,3.9 -11.73,2.92 -15.64,2.92 -3.9,0 -3.9,0 -4.89,0.98 -5.85,8.79 -13.67,11.72 -23.44,6.83 0,0.98 -0.98,1.96 -0.98,2.93 0,0.98 -0.97,1.95 -1.95,2.93 -8.79,10.75 -17.58,11.72 -24.41,12.7 -0.99,0 -2.94,0 -3.91,0.98 -0.97,0 -1.95,0 -2.92,0 -3.91,0 -9.77,4.88 -14.66,8.79 -0.98,0.98 -2.94,1.96 -4.89,1.96 -5.86,0.97 -13.68,6.83 -19.53,12.7 -8.79,7.81 -18.57,15.63 -29.31,13.67 -6.84,0.98 -13.69,7.81 -19.54,12.7 -0.98,0.98 -0.98,0.98 -1.95,1.96 -1.95,3.9 -4.89,8.79 -10.75,9.77 -1.95,0.98 -3.91,0.98 -4.89,0 0.02,0.02 0.02,0.02 -0.96,0.02z"/>
   <path class="fil14" d="M1260.5 1390.25c-4.88,0 -8.79,-2.93 -10.75,-6.83 -3.91,-1.96 -6.83,-5.86 -5.86,-10.75 0.98,-6.84 6.83,-8.79 7.81,-8.79 2.92,0 4.88,0 5.86,0.97 0.97,-2.92 4.88,-5.86 7.81,-5.86 0.98,0 1.95,0 2.93,0 0.97,-0.97 1.96,-2.92 2.92,-4.88 3.91,-6.84 8.79,-18.56 19.54,-17.59 7.81,0 11.73,6.84 13.68,11.73 0,-0.98 0.98,-0.98 0.98,-1.95 0.98,-2.93 2.93,-4.89 3.9,-7.81 5.86,-8.79 11.73,-20.52 23.45,-19.54 5.86,0 9.77,2.93 13.68,8.79 11.73,2.92 25.39,-2.93 40.05,-16.61l0.98 -0.98c10.75,-7.81 22.46,-6.83 31.26,-5.86 9.77,0.98 16.61,0.98 24.42,-5.86 1.95,-1.95 4.89,-2.93 7.81,-2.93 6.84,0.98 13.69,-0.97 21.49,-2.93l3.9 -0.97c9.77,-2.93 22.47,-4.88 34.2,0 4.89,1.95 6.84,7.81 4.89,11.73 -1.95,4.88 -7.82,6.83 -11.73,4.88 -5.86,-2.93 -12.7,-1.95 -22.47,0.97l-3.89 0.98c-7.81,1.95 -15.64,3.9 -24.42,3.9 -12.71,9.77 -24.43,8.79 -35.18,7.82 -8.79,-0.98 -13.67,-0.98 -19.53,2.92 -21.49,19.54 -42.01,25.4 -61.55,18.57 -1.95,-0.98 -3.9,-1.96 -4.89,-4.89 0,0 0,-0.98 -0.97,-0.98 -1.95,2.93 -4.89,7.82 -5.86,9.77 -0.98,1.95 -1.95,3.9 -3.9,6.83 -4.89,8.79 -9.77,18.56 -19.54,17.59 -7.81,-0.98 -10.75,-7.81 -12.7,-12.7 0,0.98 -0.98,0.98 -0.98,1.95 -3.9,8.79 -8.79,17.59 -16.61,18.56 -1.95,3.91 -5.86,7.81 -10.75,7.81 0.97,2.94 0,2.94 0,2.94z"/>
   <path class="fil14" d="M948.85 1366.81l0 0c-4.88,0 -8.79,-2.93 -11.72,-6.84l0 0c-7.81,0 -13.69,-8.79 -18.56,-16.61 -0.98,-0.98 -0.98,-1.95 -0.98,-1.95 -0.97,4.88 -3.9,12.7 -10.75,13.68 -9.77,1.95 -15.63,-6.83 -21.48,-15.63 -0.98,-1.95 -2.93,-3.91 -3.91,-5.86 -0.98,-1.95 -4.88,-5.86 -7.81,-8.79l0 0.97c-0.97,1.96 -2.92,3.91 -4.88,4.89 -18.57,8.79 -39.08,4.88 -63.5,-11.73 -5.86,-2.92 -11.73,-1.95 -19.54,0 -9.77,1.96 -22.47,3.91 -36.15,-3.9 -8.79,0.98 -16.61,0 -24.42,-0.97l-3.9 -0.98c-9.77,-0.98 -16.61,-0.98 -22.47,1.95 -4.89,2.93 -9.77,0.98 -12.7,-3.9 -2.93,-4.88 -0.98,-9.77 3.9,-12.7 11.73,-6.84 23.45,-5.86 34.2,-3.91l3.91 0.98c7.81,0.98 15.62,1.95 21.48,0 2.92,-0.98 5.86,0 7.82,1.95 7.81,5.86 15.62,4.89 24.41,2.93 8.79,-1.95 20.51,-3.9 32.25,1.95 0,0 0.97,0 0.97,0.98 16.61,11.72 30.29,15.63 42.01,11.72 2.93,-5.86 7.81,-9.77 12.7,-10.75 10.75,-1.95 18.56,8.79 25.4,16.61 1.95,1.95 2.93,4.89 4.89,6.84 0,0 0.97,0.97 0.97,1.95 1.95,-4.88 4.89,-11.73 12.7,-12.7 9.77,-1.95 16.61,8.79 21.49,15.63 0.97,1.95 1.95,3.91 2.92,4.89 0.98,0 1.95,-0.98 2.93,-0.98 3.9,0 6.84,0.98 8.79,4.89 1.95,-0.98 3.9,-1.96 5.86,-1.96 1.95,0 6.84,0.98 8.79,7.82 0.97,3.9 -0.98,8.79 -3.9,10.74 -2.94,4.87 -5.87,8.79 -11.74,8.79z"/>
   <path class="fil1" d="M1823.22 1396.12l0 0c1.95,1.95 3.9,2.92 5.86,4.88 3.9,2.93 8.79,3.9 13.67,4.89 47.87,3.9 80.11,44.94 81.09,45.92 10.74,13.68 29.31,15.63 42.98,5.86 13.68,-10.75 15.63,-29.31 5.86,-42.99 -0.97,-0.97 -40.05,-24.42 -51.78,-35.17 -9.77,-8.79 10.75,-4.88 -4.89,-13.68l0 0c-18.56,-10.75 -41.03,-19.54 -66.43,-21.49l0 0c0,0 0,0 -0.97,0 -3.91,0 -7.82,0 -11.73,0.98 -11.72,3.9 -20.51,13.68 -21.49,27.36 -0.98,8.79 1.94,17.58 7.81,23.44z"/>
   <path class="fil2" d="M1823.22 1396.12c0,-25.4 33.22,-31.27 60.57,-32.25l0 0c16.61,0 31.27,0.98 32.24,1.95l-50.8 -12.7 0 0 -28.34 -6.83c-11.72,3.9 -20.51,13.68 -21.49,27.36 -0.98,7.81 1.94,16.61 7.81,22.47z"/>
   <path class="fil3" d="M1929.71 1460.59c-2.93,0 -4.89,-0.97 -6.84,-2.92l0 0c0,0 -37.12,-39.08 -81.08,-42.99 -6.84,-0.97 -12.7,-2.92 -17.59,-5.86 -12.7,-7.81 -19.53,-21.49 -17.58,-36.14 1.95,-21.49 20.51,-38.1 42.98,-36.15 37.12,2.93 71.32,23.45 88.91,36.15 3.9,2.92 4.88,7.81 1.95,11.72 -2.93,3.91 -7.82,4.89 -11.73,1.95 -15.63,-10.75 -47.87,-30.28 -81.08,-33.22 -11.72,-0.97 -22.46,7.82 -23.45,20.52 -0.97,7.81 2.93,15.63 9.77,20.51 2.92,1.95 6.83,2.93 9.77,3.9 51.78,3.91 92.81,48.85 92.81,49.83 2.92,3.91 1.95,8.79 -1.96,11.73 -0.97,0 -2.92,0.98 -4.87,0.98z"/>
   <path class="fil1" d="M474.06 1304.29c-282.33,214.93 -504.1,110.39 -409.34,-276.48 41.02,-137.75 40.04,-250.1 146.54,-201.24 41.02,40.05 22.47,58.61 3.9,118.21 -30.29,83.04 -68.4,282.34 -34.2,332.16 43.96,46.89 152.4,-28.34 211.02,-64.48 57.65,-42.99 131.89,40.05 82.07,91.83z"/>
   <path class="fil2" d="M410.56 1347.27c-12.7,7.81 -27.36,15.63 -42.98,23.45 -79.13,39.07 -146.54,52.75 -200.27,40.04 -42.98,-10.74 -76.2,-37.12 -96.71,-78.15 -33.22,-67.41 -35.17,-169.01 -5.86,-304.81 20.51,-93.78 49.83,-170.96 50.8,-173.89 11.73,-32.25 47.87,-47.88 79.13,-36.15 5.86,1.95 10.75,4.88 15.63,8.79l0 0c0,0 -50.8,-5.86 -76.2,94.76 -25.39,100.63 -81.08,341.93 -3.9,428.88 77.17,86.95 276.46,-0.98 280.38,-2.93z"/>
   <path class="fil0" d="M363.67 1231.99c-197.35,158.27 -225.67,90.86 -223.72,-60.57 2.92,-150.44 87.93,-324.34 87.93,-324.34l0 0 5.86 15.63c1.94,10.75 1.94,22.47 -2.94,34.2 0,0 -6.83,18.56 -16.61,46.9 -8.79,29.31 -20.51,68.39 -30.28,111.36 -22.47,101.61 -23.44,181.71 -3.91,220.79 4.89,8.79 8.79,11.73 15.64,13.68 39.07,10.75 114.29,-24.42 168.03,-57.64z"/>
   <path class="fil3" d="M209.31 1423.47c-15.63,0 -30.29,-1.96 -43.95,-4.89 -45.92,-10.75 -81.09,-40.05 -102.59,-82.07 -34.19,-68.39 -36.14,-172.92 -5.86,-309.68 21.49,-94.77 49.83,-171.94 51.79,-174.87 13.67,-36.15 54.7,-54.71 90.85,-41.04 36.15,13.68 54.7,54.71 41.03,90.86 0,0.97 -27.36,72.29 -45.92,157.29 -21.49,99.65 -23.44,177.81 -4.88,214.93 3.9,6.84 5.85,7.81 9.77,8.79 36.15,8.79 117.23,-28.34 175.85,-67.41 3.9,-2.93 9.77,-1.95 11.73,1.95 2.92,3.9 1.95,9.77 -1.95,11.73 -43.96,29.31 -139.71,82.06 -189.53,70.34 -9.77,-2.93 -16.61,-7.81 -21.49,-17.59 -20.51,-41.03 -19.53,-123.1 3.91,-226.65 19.53,-86.95 45.92,-159.25 46.89,-160.22 10.76,-27.36 -3.9,-57.64 -30.28,-68.39 -27.36,-10.75 -57.64,2.92 -68.39,30.28 -0.97,2.93 -30.28,79.13 -50.81,172.92 -29.31,132.87 -28.33,233.5 4.89,298.95 19.54,38.1 50.81,63.5 90.86,73.27 51.77,12.7 117.23,-0.97 194.41,-39.07 52.76,-26.38 93.78,-55.69 95.74,-56.66 2.93,-1.95 5.86,-4.89 7.81,-7.81 3.91,-3.91 6.83,-8.79 8.79,-13.68 1.95,-3.9 6.84,-5.86 11.73,-3.9 3.9,1.95 5.86,6.83 3.9,11.72 -2.93,6.84 -6.18,13.71 -11.06,18.59 -2.92,3.9 -11.41,8.77 -11.41,8.77 -4.88,2.93 -44.94,32.24 -97.69,58.62 -62.53,30.28 -117.23,44.94 -164.13,44.94z"/>
   <polygon class="fil17" points="512.16,1318.93 596.18,1234.92 627.45,1310.15 655.77,1378.53 587.38,1350.2 "/>
   <path class="fil9" d="M587.38 1350.2c4.89,-7.82 9.77,-15.64 16.6,-23.45 6.85,-6.83 14.66,-12.7 22.48,-17.59l28.34 68.4 -67.42 -27.36z"/>
   <path class="fil18" d="M523.07 1314.25l122.55 57.37 -55.46 -125.86 -67.09 68.49zm129.69 65.63c-5.07,-11.43 -66.55,-21.58 -67.51,-22.56l-76.02 -30.58c-2.92,-0.98 -4.88,-3.9 -4.88,-5.86 -0.98,-2.93 0,-5.86 1.95,-7.81l84.02 -84.02c1.95,-1.95 4.88,-2.93 7.81,-1.95 2.92,0.97 4.88,2.93 5.85,4.88l29.57 74.74c0.97,2.92 26.38,63.98 23.46,66.91 -0.99,0.98 -3.47,8.04 -4.25,6.25z"/>
   <polygon class="fil9" points="88.43,897.77 172.49,813.28 595.62,1234.27 511.57,1318.77 "/>
   <path class="fil10" d="M99.57 897.74l411.98 409.89 72.95 -73.33 -411.97 -409.89 -72.96 73.33zm412.01 428.9c-2.01,0 -4.01,-0.77 -5.56,-2.29l-423.13 -421c-3.08,-3.06 -3.09,-8.05 -0.03,-11.13l84.05 -84.5c1.48,-1.48 3.48,-2.31 5.58,-2.32 2.04,0.02 4.09,0.82 5.57,2.29l423.15 421c1.47,1.47 2.3,3.48 2.31,5.57 0.01,2.08 -0.81,4.09 -2.29,5.57l-84.06 84.5c-1.54,1.54 -3.56,2.32 -5.59,2.32z"/>
   <path class="fil10" d="M550.24 1282.5c-1.95,0 -0.95,2.25 -1.92,0.3l-423.99 -421.06c-2.93,-2.93 -2.93,-8.79 0,-11.73 2.93,-2.92 8.79,-2.92 11.73,0l423 421.06c2.93,2.93 -0.97,5.59 -3.9,8.53 -0.97,1.95 -2.96,2.9 -4.91,2.9z"/>
   <polygon class="fil11" points="50.08,871.51 147.76,775.76 179.02,808 83.29,903.74 "/>
   <path class="fil17" d="M25.64 751.34l0 0c23.44,-23.45 60.57,-23.45 84.02,0l31.26 31.26 -84.02 84.02 -31.26 -31.27c-23.45,-23.44 -23.45,-61.54 0,-84.01z"/>
   <path class="fil18" d="M25.64 751.34l0 0zm42 -9.77c-12.7,0 -26.37,4.89 -36.15,14.66l0 0c-19.53,19.54 -19.53,51.78 0,72.3l31.55 31.35 73.26 -70.37 -33.5 -33.28c-9.77,-9.77 -22.46,-14.66 -35.17,-14.66zm-10.75 133.84c-1.95,0 -4.88,-0.98 -5.86,-2.93l-31.26 -31.26c-26.37,-26.38 -26.37,-69.37 0,-96.72l0 0c26.37,-26.37 69.37,-26.37 96.72,0l31.26 31.27c2.93,2.93 -0.03,5.57 -2.96,8.5l-86.44 82.35c-1.95,2.92 1.48,8.79 -1.46,8.79l0 0z"/>
   <path class="fil1" d="M485.78 1114.76c-0.97,3.9 -1.95,7.81 -3.9,10.74 -1.95,2.93 -3.9,5.87 -6.83,7.82 -4.89,3.9 -9.77,7.81 -13.69,12.7l0 0c-4.88,5.86 -8.79,10.75 -11.72,16.61l0 0c-5.86,9.77 -7.82,18.56 -8.79,26.37 -1.95,13.68 0.97,23.45 0.97,25.4l0 0 -30.28 46.89 -28.34 -27.36c-0.97,-1.95 -5.86,-17.58 -4.88,-41.03 0.97,-30.28 12.7,-71.31 58.62,-107.46 13.68,-10.75 32.24,-8.79 42.98,4.88 4.88,7.82 6.83,16.61 5.85,24.43z"/>
   <path class="fil1" d="M533.65 1140.15c1.95,8.79 0,18.56 -4.89,26.38 -1.95,1.95 -3.9,3.9 -5.86,5.86 -2.93,1.95 -4.89,3.9 -7.81,6.83 -5.86,4.89 -10.75,10.75 -14.66,15.64 -17.58,23.44 -20.51,43.95 -20.51,47.87l-69.37 46.89 7.82 -47.87c0,-0.97 0,-7.81 2.92,-19.54 1.95,-7.81 4.88,-18.56 9.77,-29.3 0.97,-2.93 2.92,-6.84 4.88,-9.77 6.83,-12.7 16.61,-27.36 30.29,-41.03 4.88,-4.89 9.77,-9.77 15.63,-14.66 0.97,-0.97 2.92,-1.95 3.91,-2.93 13.67,-10.75 33.22,-7.81 42.97,5.86 2.95,1.95 3.92,5.85 4.9,9.77z"/>
   <path class="fil1" d="M566.87 1209.52l0 0c-0.98,1.95 -2.94,3.9 -3.9,5.86 -2.94,3.9 -7.82,6.83 -12.71,7.81 -44.94,16.61 -65.45,64.48 -65.45,65.46 0,0 -33.22,17.58 -40.06,16.61 -16.61,-1.95 -23.44,-24.42 -16.61,-40.05 0,-0.98 4.89,-10.75 12.71,-24.42 6.84,-10.75 16.6,-24.42 29.3,-37.13l0 0c14.67,-14.65 34.2,-29.31 58.63,-38.09l0 0c3.89,-0.98 7.81,-1.96 10.75,-1.96 12.7,0 23.44,7.82 28.32,20.52 3.91,8.79 2.93,17.58 -0.97,25.39z"/>
   <path class="fil2" d="M478.94 1091.31c0,0 -75.22,21.49 -101.61,102.58 0.98,-30.29 12.7,-71.32 58.62,-107.47 13.68,-10.74 33.21,-8.79 42.98,4.89z"/>
   <path class="fil2" d="M533.65 1140.15c-1.95,0.98 -33.23,-7.81 -93.79,49.83 -2.92,2.93 -7.81,1.95 -8.79,1.95 -2.93,0 -1.95,-2.92 4.88,-9.77 0.98,-0.98 5.86,-7.81 13.69,-18.56l0 0c3.9,-4.89 7.81,-9.77 11.72,-16.61l0 0c0.98,-1.95 2.93,-3.9 3.9,-5.86 5.86,-7.81 12.7,-16.61 20.51,-25.4 -0.97,3.9 -1.95,7.81 -3.9,10.75 0.98,-0.98 2.93,-1.95 3.9,-2.93 13.68,-10.75 33.23,-7.81 42.98,5.86 2.94,2.93 3.91,6.83 4.89,10.75z"/>
   <path class="fil2" d="M566.87 1209.52c-6.84,-25.4 -41.04,-21.49 -66.44,-15.64l0 0c-16.61,3.91 -29.31,9.77 -30.28,9.77l44.94 -25.4 0 0 25.39 -14.66c12.71,0 23.45,7.81 28.34,20.52 2.92,8.79 1.94,17.59 -1.96,25.4z"/>
   <path class="fil3" d="M379.29 1231.01c-3.9,0 -7.81,-2.93 -8.79,-6.84 -4.88,-25.4 -7.82,-90.85 59.59,-144.59 7.81,-6.83 18.56,-9.77 29.31,-8.79 10.75,0.97 19.54,6.83 26.37,14.65 10.75,12.71 11.73,31.27 2.93,44.94 -2.93,3.9 -7.81,4.88 -11.72,2.93 -3.9,-2.93 -4.89,-7.82 -2.93,-11.73 4.89,-7.81 3.9,-18.56 -1.95,-25.4 -3.9,-4.88 -8.79,-7.81 -14.66,-7.81 -5.86,-0.97 -11.72,0.98 -16.61,4.89 -59.6,47.87 -57.64,105.51 -53.73,127.97 0.78,6.98 -4.93,9.78 -4.93,9.78 0,0 -1.91,-0.01 -2.89,-0.01z"/>
   <path class="fil3" d="M427.17 1210.49c-0.98,0 -1.96,0 -2.93,-0.97 -4.89,-1.95 -6.84,-6.84 -4.89,-10.75 7.82,-22.46 25.4,-54.71 61.55,-82.07 8.79,-6.83 18.56,-8.79 29.31,-7.81 10.75,0.98 19.53,6.84 26.37,14.66 10.75,13.67 12.9,29.8 3.13,43.46 -2.92,3.91 -9.97,8.31 -13.87,5.38 -3.9,-2.93 -4.88,-7.82 -1.95,-11.73 5.86,-7.81 5.86,-18.56 0,-26.37 -3.9,-4.89 -8.79,-7.81 -14.66,-8.79 -5.86,-0.98 -11.72,0.98 -16.61,4.88 -33.22,25.4 -48.84,54.71 -55.68,74.25 -2.93,2.92 -6.83,5.85 -9.77,5.85z"/>
   <path class="fil3" d="M474.06 1313.07c-0.97,0 -1.95,0 -3.9,-0.97 -3.9,-1.95 -7.55,-3.64 -6.57,-7.55 0,-0.98 33.92,-70.61 82.77,-89.18 3.9,-0.97 6.83,-2.92 8.79,-5.86 5.86,-5.86 6.83,-14.66 4.88,-22.46 -1.94,-5.86 -5.85,-9.77 -11.72,-12.7 -5.86,-2.93 -11.73,-2.93 -16.61,-0.98 -23.44,8.79 -44.94,23.45 -63.5,43.96 -2.94,3.9 -8.8,3.9 -11.73,0.98 -3.91,-2.93 -3.91,-8.79 -0.97,-11.73 20.5,-22.46 43.96,-39.07 70.33,-48.85 9.77,-3.9 20.52,-2.92 30.3,0.98 9.76,4.88 16.61,12.7 20.5,22.46 4.89,13.69 1.95,29.31 -7.81,40.05 -3.91,4.89 -9.77,8.79 -15.64,10.75 -41.03,14.66 -66.51,72.47 -66.02,73.32 0,0 -10.18,7.77 -13.11,7.77z"/>
   <path class="fil9" d="M1009.42 1020c0,0 -61.54,20.51 -60.57,71.32 0.98,51.78 86.96,29.31 119.19,-6.84l-34.19 -27.36 -24.42 -37.12z"/>
   <path class="fil10" d="M1011.29 1026.51c-14.66,6.84 -54.61,29.63 -53.64,64.81 0,10.74 4.89,16.6 13.68,20.51 20.52,7.81 64.09,-6.33 87.52,-26.85l-29.89 -19.07c-0.97,-0.98 -0.97,-0.98 -1.95,-1.95l-15.72 -37.45zm-26.29 104.86c-7.81,0 -13.67,-0.98 -20.51,-2.93 -15.64,-5.86 -24.43,-18.56 -24.43,-36.15 -0.97,-57.63 63.5,-79.13 66.44,-80.1 3.9,-0.98 7.81,0 9.77,3.9l17.59 41.03 39.08 22.46c1.95,1.96 2.93,3.91 2.93,5.86 0,1.96 -0.98,4.89 -1.95,6.84 -21.49,22.47 -59.59,39.08 -88.91,39.08z"/>
   <path class="fil10" d="M954.71 1119.64c-2.92,0 -4.88,-0.98 -6.83,-3.9 -2.93,-3.91 -1.95,-8.79 1.95,-11.73 1.95,-1.95 48.85,-36.14 79.13,-52.75 3.9,-1.96 9.77,-0.98 11.72,3.9 1.96,3.9 0.98,9.77 -3.9,11.72 -29.31,15.64 -77.18,51.78 -77.18,51.78 -0.96,0 -2.92,0.98 -4.88,0.98z"/>
   <path class="fil14" d="M1162.79 1723.93c-2.07,0 -4.15,-0.81 -5.7,-2.44 -1.53,-1.6 -154.64,-160.39 -366.71,-218.23 -212.17,-57.85 -389.87,-15.9 -391.64,-15.47 -4.22,1.02 -8.48,-1.56 -9.51,-5.79 -1.03,-4.23 1.56,-8.48 5.78,-9.52 1.81,-0.44 183.25,-43.39 399.52,15.58 216.42,59.02 372.43,220.94 373.97,222.57 3,3.14 2.89,8.13 -0.27,11.13 -1.54,1.45 -3.49,2.17 -5.45,2.17z"/>
   <path class="fil14" d="M1123.29 1735.15c-1.67,0 -3.36,-0.53 -4.79,-1.63 -315.97,-242.58 -716.95,-212.34 -720.97,-211.99 -4.33,0.26 -8.14,-2.86 -8.49,-7.19 -0.37,-4.33 2.86,-8.14 7.19,-8.5 4.07,-0.32 410.95,-31.17 731.85,215.2 3.45,2.64 4.1,7.58 1.44,11.03 -1.54,2.03 -3.88,3.08 -6.24,3.08z"/>
   <path class="fil14" d="M1099.21 1753.63c-1.32,0 -2.66,-0.33 -3.89,-1.04 -313.06,-178.58 -695.12,-204.77 -698.95,-205.01 -4.34,-0.28 -7.63,-4.02 -7.35,-8.36 0.28,-4.34 4,-7.62 8.36,-7.35 3.85,0.24 389.44,26.6 705.74,207.04 3.78,2.15 5.1,6.96 2.95,10.74 -1.46,2.55 -4.12,3.98 -6.85,3.98z"/>
   <path class="fil14" d="M1162.8 1723.93c-1.95,0 -3.9,-0.71 -5.42,-2.17 -3.15,-2.99 -3.28,-7.98 -0.28,-11.13 1.54,-1.63 157.56,-163.54 373.98,-222.57 216.28,-58.97 397.7,-16.01 399.51,-15.57 4.22,1.03 6.81,5.28 5.78,9.51 -1.03,4.24 -5.28,6.83 -9.52,5.79 -1.76,-0.43 -179.46,-42.38 -391.64,15.48 -212.24,57.87 -365.19,216.63 -366.71,218.22 -1.55,1.62 -3.63,2.44 -5.71,2.44z"/>
   <path class="fil14" d="M1202.32 1735.15c-2.37,0 -4.71,-1.05 -6.25,-3.08 -2.65,-3.45 -2,-8.39 1.45,-11.03 320.9,-246.37 727.79,-215.53 731.85,-215.2 4.33,0.36 7.56,4.17 7.19,8.5 -0.36,4.34 -4,7.49 -8.51,7.19 -4.01,-0.36 -404.99,-30.58 -720.95,211.99 -1.43,1.1 -3.11,1.63 -4.79,1.63z"/>
   <path class="fil14" d="M1226.38 1753.63c-2.74,0 -5.39,-1.42 -6.84,-3.98 -2.15,-3.77 -0.84,-8.58 2.93,-10.74 316.3,-180.44 701.89,-206.8 705.76,-207.04 4.39,-0.27 8.07,3.01 8.35,7.35 0.28,4.34 -3.01,8.08 -7.35,8.36 -3.83,0.24 -385.89,26.41 -698.94,205.01 -1.24,0.7 -2.58,1.04 -3.9,1.04z"/>
   <path class="fil3" d="M1139.73 1106.98c-0.08,0 -0.15,0 -0.22,-0.01 -139.43,-3.74 -138.97,-113.38 -138.94,-114.49 0.07,-4.35 3.77,-7.67 8.02,-7.73 4.34,0.08 7.8,3.66 7.73,8 -0.06,3.93 0.17,95.16 123.62,98.48 4.35,0.11 7.77,3.74 7.66,8.08 -0.12,4.28 -3.63,7.67 -7.86,7.67z"/>
   <path class="fil14" d="M61.34 871.48l21.85 21.21 84.77 -84.77 -20.35 -20.99 -86.27 84.54zm21.95 40.14c-1.98,0 -3.96,-0.74 -5.48,-2.23l-33.21 -32.23c-1.53,-1.48 -2.39,-3.51 -2.4,-5.63 0,-2.13 0.85,-4.16 2.37,-5.64l97.68 -95.74c1.49,-1.46 3.5,-2.16 5.6,-2.26 2.1,0.03 4.11,0.89 5.56,2.4l31.27 32.25c3,3.08 2.96,8.01 -0.08,11.04l-95.74 95.74c-1.54,1.54 -3.56,2.3 -5.57,2.3z"/>
   <path class="fil10" d="M599.12 1346.46l41.2 16.72 -17.4 -41.99c-9.09,6.95 -17.14,15.52 -23.8,25.27zm55.68 38.96c-1,0 -2.01,-0.18 -2.97,-0.57l-67.41 -27.36c-2.15,-0.88 -3.81,-2.66 -4.53,-4.87 -0.71,-2.22 -0.42,-4.63 0.82,-6.6l3.06 -4.86c10.02,-15.78 23.26,-29.09 38.28,-38.52 1.97,-1.22 4.48,-1.6 6.7,-0.91 2.2,0.7 4.1,2.27 4.98,4.41l28.34 68.39c1.22,2.94 0.55,6.31 -1.68,8.56 -1.53,1.53 -3.55,2.33 -5.59,2.33z"/>
  </g>
 </g>
</svg>
