<?xml version="1.0" encoding="UTF-8"?>
<!DOCTYPE svg PUBLIC "-//W3C//DTD SVG 1.1//EN" "http://www.w3.org/Graphics/SVG/1.1/DTD/svg11.dtd">
<!-- Creator: CorelDRAW -->
<svg xmlns="http://www.w3.org/2000/svg" xml:space="preserve" width="26.5408mm" height="22.513mm" version="1.1" style="shape-rendering:geometricPrecision; text-rendering:geometricPrecision; image-rendering:optimizeQuality; fill-rule:evenodd; clip-rule:evenodd"
viewBox="0 0 2022.03 1715.17"
 xmlns:xlink="http://www.w3.org/1999/xlink"
 xmlns:xodm="http://www.corel.com/coreldraw/odm/2003">
 <defs>
  <style type="text/css">
   <![CDATA[
    .fil8 {fill:#22213F;fill-rule:nonzero}
    .fil10 {fill:#A55A0F;fill-rule:nonzero}
    .fil3 {fill:#BF4B6F;fill-rule:nonzero}
    .fil1 {fill:#E26988;fill-rule:nonzero}
    .fil0 {fill:#ED7E97;fill-rule:nonzero}
    .fil2 {fill:#F490AA;fill-rule:nonzero}
    .fil9 {fill:#F9C710;fill-rule:nonzero}
    .fil4 {fill:#FC9DB8;fill-rule:nonzero}
    .fil5 {fill:#FFA6BD;fill-rule:nonzero}
    .fil6 {fill:#FFB8CC;fill-rule:nonzero}
    .fil7 {fill:white;fill-rule:nonzero}
   ]]>
  </style>
 </defs>
 <g id="Слой_x0020_1">
  <metadata id="CorelCorpID_0Corel-Layer"/>
  <g id="_2909159819072">
   <path class="fil0" d="M1278.95 1197.83c-16.87,75.52 -41.76,159.86 -61.05,236.18 -20.08,74.72 -40.97,150.23 -62.66,224.93 -10.44,40.17 -73.91,28.11 -69.89,-12.85 19.27,-149.42 36.95,-312.49 52.22,-462.71 8.03,-92.38 151.83,-77.12 141.38,14.46z"/>
   <path class="fil0" d="M833.11 1648.49c0.8,39.37 -59.44,48.2 -69.89,9.65 -21.69,-74.72 -42.57,-149.42 -62.66,-224.93 -19.28,-72.3 -40.97,-153.44 -59.45,-225.73 -23.29,-97.21 128.53,-124.52 139.79,-24.91 15.26,152.62 33.74,314.9 52.21,465.92z"/>
   <path class="fil1" d="M792.95 1298.24l7.23 66.68c-83.55,28.11 -118.09,-3.22 -118.09,-3.22l-11.25 -40.97c-9.64,-37.76 -20.07,-74.72 -29.72,-112.47 -9.65,-37.76 12.85,-77.12 51.41,-86.76 37.76,-9.64 77.12,12.85 86.76,51.41 0.8,3.22 1.61,6.43 1.61,10.45l0 0.8 12.04 114.07z"/>
   <path class="fil1" d="M1278.95 1197.83c0,3.22 -0.79,7.23 -1.61,10.45 -9.63,37.76 -19.27,75.51 -29.72,112.47 0,0 -53.02,56.23 -129.33,33.74l8.04 -56.24 12.04 -114.87 0 0c4.01,-39.37 39.37,-67.48 77.92,-63.46 38.57,4.01 66.68,38.56 62.66,77.92z"/>
   <path class="fil0" d="M1303.06 1673.4l0 0c-16.88,40.17 -210.47,57.84 -217.7,-19.28 0,-0.8 0,-2.41 0,-3.22 0,-0.79 0,-1.61 0,-3.22l0 -1.6c0,-2.42 0.81,-4.82 0.81,-7.23 0,-0.81 0,-1.61 0.8,-2.41l40.97 -12.85 39.36 -12.05 0.81 0c12.85,0.8 127.73,8.04 135.76,53.83 0.82,3.22 0.01,5.62 -0.79,8.03z"/>
   <path class="fil2" d="M1303.06 1673.4l0 0c0,0 -49.8,-32.13 -140.58,-41.77 -2.41,0 -4.82,-0.8 -7.23,-0.8 -14.46,-1.61 -23.3,-16.88 -17.68,-29.73l86.76 -195.2 -7.23 28.11c-16.06,59.46 -32.13,118.9 -49,178.34 12.85,0.8 127.73,8.03 135.76,53.83 0.81,2.41 0,4.81 -0.8,7.22z"/>
   <path class="fil0" d="M833.11 1648.49c0,4.01 -0.8,8.04 -1.61,12.05 -18.48,74.71 -224.92,49 -217.69,4.82 8.03,-44.99 122.9,-53.02 135.76,-53.83 0.8,0 0.8,0 0.8,0l28.93 8.84 51.41 15.26c0,0.81 0,1.61 0.8,3.22 0.8,2.42 0.8,4.82 0.8,6.43l0 0.8c0.81,0.8 0.81,1.61 0.81,2.41l0 0z"/>
   <path class="fil2" d="M780.9 1620.38c3.21,8.03 -2.42,16.07 -11.25,16.07 -4.01,0 -8.03,0 -12.04,0 -89.98,1.6 -143,28.11 -143,28.11 8.04,-44.99 122.91,-53.02 135.76,-53.83 -16.87,-59.45 -32.94,-118.9 -49,-178.34l-7.23 -28.11 86.77 216.09 0 0z"/>
   <path class="fil1" d="M831.51 1660.54c-18.48,74.71 -224.92,49 -217.69,4.82 0.79,0 117.28,36.95 217.69,-4.82z"/>
   <path class="fil1" d="M1303.06 1673.4c-16.88,40.17 -210.47,57.84 -217.7,-20.08 0.81,0 1.61,0 1.61,0 0,0 80.34,53.02 216.09,20.08z"/>
   <path class="fil3" d="M1110.26 1681.43c41.77,28.92 141.39,20.08 175.93,-1.6 5.62,-3.22 11.25,-8.04 10.45,-13.65 -6.42,-34.55 -95.59,-45.8 -130.14,-47.4 -2.56,0 -5.09,-2.06 -6.03,-4.92 -0.43,-0.55 -0.61,-1.28 -0.4,-2.31 0,-0.93 0.29,-1.84 0.77,-2.7 18.26,-64.14 37.96,-127.32 50.63,-175.65l29.73 -112.46c10.45,-36.96 20.08,-74.72 29.73,-112.47 0.8,-3.22 1.61,-6.42 1.61,-9.64 4.01,-34.55 -21.7,-65.88 -57.04,-69.89 -35.35,-4.01 -66.68,21.69 -70.69,57.04l-12.05 114.87 -12.84 114.88c-7.24,67.48 -16.07,140.59 -26.51,221.72 -4.01,19.28 1.61,32.94 16.87,44.18zm-32.9 -36.75c0.01,-0.24 -0.02,-0.48 0.02,-0.72 0.02,-0.09 0.03,-0.18 0.04,-0.27 0.16,-1.91 0.41,-3.85 0.75,-5.81 10.22,-79.04 21.03,-156.58 28.07,-223.16l12.86 -114.87 12.04 -115.68c4.82,-43.37 43.38,-74.71 85.96,-69.89 43.38,4.82 74.71,43.38 69.89,85.95 -0.8,3.21 -1.6,7.23 -2.41,11.25 -9.64,38.56 -20.08,75.52 -29.72,113.27l-29.72 112.46c-12.32,46.21 -30.28,106.34 -48.01,168.55 32.57,2.49 126.24,13.14 133.96,58.79 0.81,7.23 -0.8,17.68 -16.87,28.12 -20.88,13.66 -61.86,22.49 -102.82,22.49 -33.74,0 -66.68,-6.42 -89.97,-22.49 -17.07,-11.6 -25.39,-28.42 -24.07,-48z"/>
   <path class="fil3" d="M631.48 1680.63c33.74,22.5 134.16,31.34 175.93,1.62 15.26,-11.25 20.88,-25.71 16.87,-44.19 -10.44,-81.14 -18.48,-155.05 -25.7,-223.33l-13.66 -114.07 -12.05 -115.67 0 -0.81c0,-2.4 -0.8,-5.62 -1.61,-8.83 -4.81,-16.87 -15.26,-30.53 -29.72,-39.37 -14.47,-8.84 -31.33,-11.24 -48.2,-7.23 -33.74,8.84 -54.63,43.38 -45.79,77.92 9.65,37.75 20.08,74.71 29.72,112.47l29.73 112.46c12.61,48.08 31.4,113.18 49.56,177.07 0.65,1.06 1.05,2.32 1.05,3.69 0.1,0.51 0.13,0.98 0.11,1.41 -0.11,3.33 -3.02,5.82 -6.54,5.82 -33.74,0.8 -123.71,12.85 -130.14,47.4 -0.8,5.62 5.62,10.44 10.45,13.65zm-24.9 -15.26c8.4,-45.51 100.97,-56.23 133.68,-58.77 -17.72,-62.54 -34.56,-123.83 -46.92,-170.98l-29.72 -112.47c-10.45,-36.95 -20.08,-74.71 -29.73,-112.47 -10.45,-41.77 14.46,-85.15 56.23,-95.6 20.09,-5.62 41.77,-2.41 59.45,8.04 18.48,11.25 31.34,28.12 36.15,48.2 1.61,4.01 1.61,7.22 2.41,11.24l12.05 115.68 12.85 114.88c7.23,68.28 15.93,143.79 26.38,224.93l-0.02 0c4.21,22.67 -3.96,41.62 -23.14,55.43 -21.69,15.26 -55.43,21.69 -89.17,21.69 -40.97,0 -81.94,-9.64 -103.63,-21.69 -16.08,-10.45 -18.48,-20.88 -16.87,-28.11z"/>
   <path class="fil0" d="M1468.2 1080.44c-151.02,-50.61 -208.86,-157.45 -229.75,-238.58 -14.46,-54.63 -14.46,-105.24 -12.85,-134.96 0.81,-16.07 2.41,-26.51 3.22,-27.32l11.25 2.41 88.36 15.27c0,0.81 0,1.61 -0.8,3.22 -1.61,13.66 -6.43,63.46 8.84,118.09 0.8,2.41 1.61,4.81 2.41,7.23l0 0c3.22,9.64 6.43,19.27 10.45,28.11 27.31,61.86 77.92,105.24 151.02,130.14 89.97,29.72 246.62,8.84 323.74,-6.43l0 0c9.64,-1.6 17.68,-4.01 24.9,-5.62 27.32,-6.43 54.63,10.45 61.06,37.77 6.43,27.3 -10.45,54.62 -37.76,61.05 -1.61,0 -8.04,1.61 -17.68,4.01l0 0c-61.05,12.85 -258.67,48.2 -386.39,5.62z"/>
   <path class="fil2" d="M1350.12 854.71c27.31,61.86 77.92,105.24 151.02,130.14 89.98,29.72 246.63,8.83 323.75,-6.43 -4.83,1.61 -138.98,45.79 -244.21,43.38 -106.84,-2.41 -222.52,-61.06 -230.55,-167.09z"/>
   <path class="fil1" d="M1468.2 1080.44c-151.02,-50.61 -208.86,-157.45 -229.75,-238.58 -14.46,-54.63 -14.46,-105.24 -12.85,-134.96 0.81,-16.07 2.41,-26.51 3.22,-27.32l11.25 2.41 87.56 19.28c-1.61,13.66 -6.43,63.46 8.84,118.09 0.8,2.41 1.61,4.82 2.41,7.23l0 0c0,0 -50.61,37.76 -25.71,109.25 24.91,72.3 146.2,181.55 540.63,139.78 -60.24,12.05 -257.86,47.4 -385.58,4.82z"/>
   <path class="fil0" d="M1859.42 1005.73c1.6,1.61 7.23,6.43 17.67,11.25 3.22,1.6 6.44,3.21 10.45,4.01 12.05,4.01 27.32,6.43 47.4,6.43 16.87,0 36.95,-3.22 61.05,-9.65 13.66,-4.01 21.69,-17.68 17.68,-31.33 -3.22,-11.25 -12.85,-18.48 -23.3,-18.48 -2.41,0 -4.82,0 -7.22,0.81 -45.8,12.84 -72.31,7.23 -82.75,3.21 -3.22,-1.61 -5.62,-2.41 -6.43,-3.21l0.8 0.8 -35.34 36.16z"/>
   <path class="fil0" d="M1844.96 992.88c0,11.25 7.23,20.89 17.67,24.11 2.42,0.8 4.83,1.6 8.05,1.6 2.41,0 4.81,0 6.42,-0.8 10.45,-3.22 18.48,-12.85 18.48,-24.9 0,-7.23 1.61,-14.46 4.82,-20.89 2.41,-4.82 4.81,-8.84 7.23,-12.85 7.23,-10.45 15.26,-16.87 15.26,-16.87 11.25,-8.84 12.84,-24.11 4.82,-35.35 -8.84,-11.24 -24.11,-12.85 -35.35,-4.82l0 0c-2.42,1.61 -48.2,36.95 -47.4,90.78z"/>
   <path class="fil0" d="M1895.57 1031.44l0 0zm-24.9 40.97c20.88,6.42 37.76,6.42 52.22,-0.8 14.45,-7.23 20.88,-20.89 23.29,-30.53 2.41,-13.66 -6.43,-27.31 -20.08,-29.72 -12.04,-2.42 -23.29,4.01 -28.11,15.26 -3.22,0 -8.84,-0.79 -20.08,-5.62 -12.85,-5.62 -28.11,0 -33.74,12.85 -5.62,12.85 0,28.11 12.85,33.74 4.81,1.61 9.63,3.22 13.65,4.82z"/>
   <path class="fil3" d="M1897.98 1083.66c10.45,0 20.08,-2.41 28.12,-6.42 16.07,-8.84 24.9,-24.11 26.5,-35.34 0.81,-5.63 0.81,-12.06 -1.61,-16.88 -1.61,-4.01 -5.62,-5.62 -8.83,-4.01 -4.02,1.6 -5.62,5.62 -4.02,8.83 0.81,3.22 1.61,6.43 0.81,9.65 -1.61,8.04 -7.23,19.28 -19.29,24.91 -12.04,6.42 -26.55,5.07 -45.03,-0.56 -4.01,-1.61 -9.59,2.16 -10.4,6.18 -1.61,4.01 1.65,6.33 5.68,7.13 -0.89,1.98 18.43,6.52 28.07,6.52z"/>
   <path class="fil2" d="M1934.13 1027.42l1.61 0c16.88,0 36.96,-3.22 61.06,-9.64 13.65,-4.01 21.69,-17.68 17.68,-31.34 -3.22,-11.25 -12.86,-18.48 -23.3,-18.48 1.6,3.22 23.3,39.37 -57.04,59.45z"/>
   <path class="fil2" d="M1891.55 902.11c5.62,0.81 28.92,8.84 15.27,57.04 7.23,-10.45 15.26,-16.88 15.26,-16.88 11.25,-8.84 12.85,-24.1 4.82,-35.34 -8.04,-11.25 -24.11,-12.85 -35.35,-4.82z"/>
   <path class="fil3" d="M1931.72 1034.85c20.89,0 43.38,-3.22 66.68,-10.45 8.04,-2.41 15.27,-8.04 19.27,-15.27 4.02,-7.23 5.63,-16.06 3.22,-24.9 -4.82,-16.88 -22.5,-27.32 -40.17,-22.5 -44.18,12.05 -68.29,7.24 -78.72,3.22 -4.01,-1.61 -8.04,0 -8.84,4.02 -1.61,4.01 0,8.65 4.01,9.45 12.05,4.82 39.37,10.63 87.57,-3.02 9.63,-2.41 20.07,3.22 22.49,12.85 1.6,4.82 0.8,9.64 -1.61,13.65 -2.41,4.01 -6.43,7.23 -11.25,8.84 -24.09,6.43 -45.78,9.64 -65.87,9.64l0 0c-4.01,0 -7.22,3.22 -7.22,7.24 0,4.01 3.22,7.23 7.22,7.23 0.81,0 2.42,0 3.22,0z"/>
   <path class="fil3" d="M1846.57 979.22c3.22,0 8.66,-1.97 9.47,-5.19 8.03,-39.37 38.73,-64.7 39.53,-66.3 8.03,-6.43 19.28,-4.82 25.71,3.22 6.42,8.04 4.81,19.27 -3.22,25.71 0,0 -16.06,12.85 -24.9,32.14 -1.61,3.21 0,8.03 4.01,9.64 3.22,1.61 8.04,0 9.64,-4.01 7.23,-15.26 20.07,-26.5 20.89,-26.5 6.42,-4.82 11.25,-12.85 12.04,-21.69 0.81,-8.84 -0.8,-16.88 -6.42,-24.11 -11.25,-14.45 -31.34,-16.87 -45.8,-5.61 -1.61,0.8 -35.91,29.22 -45.54,73.4 -0.8,4.01 -0.24,7.73 3.78,8.53 0,0.79 0.8,0.79 0.8,0.79z"/>
   <path class="fil3" d="M1620.83 1107.76c123.71,0 245.81,-28.12 253.04,-29.73 4.01,-0.8 6.43,-4.82 5.62,-8.84 -0.81,-4.01 -4.82,-6.43 -8.84,-5.62 -10.45,2.41 -253.04,58.64 -400.05,9.64 -147.81,-49.8 -204.04,-154.23 -225.74,-233.76 -13.65,-53.02 -14.46,-101.22 -12.04,-132.55 0.8,-8.04 1.61,-15.27 1.61,-19.28l85.95 15.27c-1.61,17.67 -4.82,65.06 9.64,118.09 23.29,83.55 79.53,140.58 167.9,170.3 102.02,34.55 289.19,3.22 352.66,-12.05 4.01,-0.8 6.42,-4.81 5.62,-8.83 -0.81,-4.01 -4.82,-6.43 -8.84,-5.62 -62.66,14.45 -245.81,44.99 -344.63,12.04 -83.55,-28.11 -136.57,-81.94 -159.06,-160.66 -16.88,-60.25 -8.84,-114.07 -8.04,-118.9l0 0c0.81,-4.01 -2.41,-7.23 -5.62,-8.03l-0.8 0 -99.61 -16.07c-1.61,0 -4.01,0 -5.62,0.8 -1.61,0.8 -2.41,2.41 -3.22,4.82 0,0.8 -1.61,11.25 -3.22,28.11 -2.41,32.14 -1.6,81.94 12.85,137.37 21.69,82.74 80.33,191.99 234.58,243.41 46.6,15.27 102.02,20.09 155.85,20.09z"/>
   <path class="fil4" d="M1772.2 903.82c0,120.5 -98.01,218.49 -218.51,218.49 -2.41,0 -5.62,0 -8.03,0 -25.71,91.58 -110.06,159.07 -210.47,159.07 -40.17,0 -77.92,-10.45 -110.06,-29.73 -40.17,54.63 -104.44,89.97 -176.73,89.97 -57.85,0 -110.06,-22.49 -148.62,-58.64 -39.37,36.15 -91.58,58.64 -148.62,58.64 -68.28,0 -129.33,-31.33 -169.5,-80.33 -28.11,12.85 -58.64,20.08 -91.58,20.08 -86.75,0 -161.46,-50.61 -196.81,-122.91 -2.41,-5.62 -5.62,-11.25 -7.22,-17.67l0 0c-5.62,0.8 -12.05,2.41 -17.68,3.21 -8.04,0.81 -16.88,1.61 -25.71,1.61 -86.75,0 -161.46,-50.61 -196.81,-123.71 -13.66,-28.92 -21.69,-61.05 -21.69,-95.6 0,-39.37 10.45,-75.52 28.12,-107.64 -28.93,-36.96 -45.79,-83.55 -45.79,-134.16 0,-100.41 68.28,-185.57 160.66,-211.28 -5.61,-19.28 -8.03,-39.36 -8.03,-60.25 0,-120.5 98.01,-218.51 218.5,-218.51 30.52,0 60.25,6.43 86.76,17.68 16.87,-104.43 106.84,-184.76 216.09,-184.76 71.5,0 134.96,34.54 175.13,87.56 1.61,0 3.22,0 4.81,0 37.77,-65.07 108.46,-108.45 188.79,-108.45 114.07,0 208.06,87.56 217.7,199.23 21.69,-7.22 44.99,-11.25 69.08,-11.25 120.5,0 218.51,98.01 218.51,218.51 0,1.6 0,3.21 0,5.61 16.88,4.02 32.94,9.65 47.4,16.88 73.1,35.34 122.9,110.06 122.9,196.81 0,38.57 -9.64,74.72 -27.31,106.04 45.8,40.17 74.72,99.62 74.72,165.49z"/>
   <path class="fil5" d="M1670.97 802.59c0,120.5 -98.01,218.51 -218.5,218.51 -2.41,0 -5.62,0 -8.03,0 -25.71,91.58 -110.07,159.05 -210.47,159.05 -40.17,0 -77.93,-10.44 -110.06,-29.72 -40.17,54.63 -104.44,89.98 -176.73,89.98 -57.84,0 -110.06,-22.5 -148.62,-58.64 -39.37,36.14 -91.58,58.64 -148.62,58.64 -68.29,0 -129.34,-31.34 -169.51,-80.34 -28.11,12.85 -58.64,20.08 -91.58,20.08 -34.54,0 -66.68,-8.04 -95.6,-21.68 -8.84,-4.02 0.81,-12.86 -7.22,-17.68 -37.77,-24.91 -85.16,-57.84 -101.23,-100.42l0 0c-15.27,3.22 -32.13,4.82 -48.2,4.01 -32.13,-0.8 -63.46,-8.83 -90.78,-21.68 -13.66,-28.93 -21.69,-61.06 -21.69,-95.6 0,-39.36 10.45,-75.52 28.12,-107.64l0 0c-28.93,-36.96 -45.79,-83.55 -45.79,-134.16 0,-100.41 68.28,-185.57 160.66,-211.27 -5.62,-19.28 -8.03,-39.37 -8.03,-60.25 0,-120.5 98.01,-218.51 218.5,-218.51 30.52,0 60.25,6.43 86.76,17.68 16.87,-104.44 106.84,-184.77 216.09,-184.77 71.49,0 134.96,34.55 175.12,87.57 1.61,0 3.21,0 4.81,0 37.77,-65.07 108.46,-108.45 188.78,-108.45 114.07,0 208.07,87.56 217.71,199.23 21.69,-7.23 44.99,-11.25 69.09,-11.25 120.5,0 218.5,98.01 218.5,218.5l0 0c0,1.61 0,3.22 0,5.63 16.88,4.01 32.94,9.63 47.4,16.87 13.66,28.92 21.69,61.05 21.69,95.6 0,38.56 -9.65,74.71 -27.32,106.04 45.81,39.36 74.72,98.81 74.72,164.68z"/>
   <path class="fil6" d="M1553.69 413.79c-73.1,-236.18 -303.65,-170.3 -303.65,-170.3 0,0 -24.9,-125.33 -163.08,-163.08 -137.37,-36.95 -224.12,82.74 -224.12,82.74 0,0 -72.3,-77.92 -192.8,-65.07 -120.5,12.85 -168.7,168.7 -168.7,168.7 0,0 -102.02,-35.34 -217.7,24.91 -114.88,60.25 -87.57,224.12 -87.57,224.12 -230.55,120.5 -147,300.45 -146.2,302.85 -28.92,-36.95 -45.79,-83.55 -45.79,-134.16 0,-100.41 68.29,-185.57 160.67,-211.27 -5.62,-19.28 -8.04,-39.37 -8.04,-60.25 0,-120.5 98.01,-218.51 218.51,-218.51 30.52,0 60.25,6.43 86.75,17.68 16.88,-104.43 106.84,-184.77 216.09,-184.77 71.5,0 134.96,34.54 175.12,87.56 1.62,0 3.22,0 4.83,0 37.76,-65.06 108.44,-108.44 188.78,-108.44 114.07,0 208.06,87.56 217.69,199.23 21.69,-7.23 44.99,-11.25 69.09,-11.25 122.1,-0.01 220.11,98 220.11,219.3z"/>
   <path class="fil3" d="M899.78 1276.48c-1.57,0 -3.15,0.58 -4.4,1.72 -39.97,36.71 -91.19,56.93 -144.22,56.93 -63.92,0 -123.86,-28.42 -164.48,-77.95 -1.87,-2.28 -5.04,-3.01 -7.73,-1.78 -28.3,12.93 -58.21,19.49 -88.89,19.49 -80.58,0 -155.55,-46.82 -190.97,-119.27 -0.59,-1.39 -1.39,-3.09 -2.19,-4.8 -1.84,-3.92 -3.58,-7.63 -4.57,-11.6 -0.82,-3.22 -3.93,-5.3 -7.22,-4.85 -2.93,0.42 -6.06,1.04 -9.2,1.67 -2.89,0.58 -5.78,1.16 -8.48,1.55 -7.34,0.73 -16.19,1.54 -24.79,1.54 -81.99,0 -155.16,-46 -190.97,-120.05 -13.95,-29.55 -21.03,-60.78 -21.03,-92.77 0,-36.39 9.19,-71.56 27.31,-104.51 1.26,-2.28 1.03,-5.09 -0.57,-7.13 -29.06,-37.12 -44.42,-82.12 -44.42,-130.16 0,-95.16 64.12,-179.47 155.91,-205.02 1.67,-0.46 3.09,-1.58 3.93,-3.1 0.85,-1.52 1.04,-3.31 0.56,-4.97 -5.23,-17.94 -7.78,-37.06 -7.78,-58.43 0,-116.9 95.11,-212.01 212.01,-212.01 28.64,0 57.76,5.93 84.22,17.16 1.84,0.78 3.92,0.67 5.68,-0.3 1.75,-0.97 2.96,-2.68 3.28,-4.65 16.79,-103.9 104.98,-179.31 209.69,-179.31 68.08,0 135.05,32.57 174.77,84.99 1.31,1.73 3.4,2.7 5.57,2.57 2.17,-0.14 4.13,-1.35 5.22,-3.23 37.66,-64.9 107.85,-105.21 183.16,-105.21 109.1,0 201.88,84.9 211.24,193.28 0.17,1.99 1.24,3.78 2.9,4.88 1.66,1.1 3.73,1.36 5.62,0.73 21.72,-7.24 44.28,-10.91 67.03,-10.91 116.91,0 212.01,95.11 212.01,212.01l0 5.61c0,3.02 2.06,5.63 5,6.32 16.81,4 32.29,9.5 45.99,16.36 73.63,35.59 119.32,108.76 119.32,191 0,36.58 -9.16,72.16 -26.47,102.84 -1.52,2.68 -0.94,6.05 1.37,8.08 46.08,40.42 72.5,98.95 72.5,160.59 0,116.9 -95.1,212.01 -212,212.01l-8.04 0c-2.91,0 -5.47,1.94 -6.26,4.75 -25.5,90.86 -109.48,154.31 -204.21,154.31 -38.41,0 -75.31,-9.96 -106.71,-28.79 -2.87,-1.72 -6.58,-0.98 -8.58,1.71 -40.2,54.68 -104.31,87.32 -171.49,87.32 -53.84,0 -105.04,-20.2 -144.17,-56.89 -1.25,-1.16 -2.85,-1.75 -4.45,-1.75zm-148.62 71.64c54.36,0 106.88,-19.98 148.58,-56.38 40.95,36.4 93.5,56.38 148.66,56.38 69.36,0 135.63,-32.78 178.44,-87.96 32.3,18.14 69.61,27.71 108.34,27.71 98.87,0 186.71,-65.16 215.34,-159.06l3.16 0c124.07,0 225.01,-100.94 225.01,-225.01 0,-63.63 -26.56,-124.14 -73.04,-166.88 16.78,-31.56 25.64,-67.62 25.64,-104.64 0,-87.26 -48.5,-164.91 -126.58,-202.66 -13.14,-6.58 -27.85,-12 -43.72,-16.1l0 -0.54c0,-124.07 -100.94,-225.01 -225.01,-225.01 -21.48,0 -42.78,3.08 -63.44,9.17 -13.71,-111.18 -110.27,-197.15 -223.34,-197.15 -76.76,0 -148.52,39.46 -189.49,103.61 -42.65,-51.24 -110.42,-82.73 -179.24,-82.73 -108.42,0 -200.14,76.16 -221.08,182.25 -25.99,-9.93 -54.09,-15.16 -81.77,-15.16 -124.07,0 -225,100.93 -225,225 0,20.18 2.16,38.51 6.58,55.81 -94.07,29.11 -159.21,116.89 -159.21,215.71 0,49.51 15.4,96.02 44.57,134.77 -17.85,33.81 -26.89,69.79 -26.89,107.03 0,33.92 7.5,67.01 22.3,98.38 38.02,78.62 115.67,127.43 202.69,127.43 9.2,0 18.43,-0.84 26.36,-1.64 3.19,-0.45 6.33,-1.07 9.46,-1.71 1.04,-0.2 2.07,-0.41 3.09,-0.61 1.1,2.86 2.35,5.55 3.58,8.17 0.75,1.58 1.48,3.13 2.14,4.69 37.72,77.17 117.26,126.84 202.78,126.84 30.92,0 61.09,-6.27 89.75,-18.65 43.01,50.21 105.16,78.91 171.33,78.91z"/>
   <path class="fil0" d="M960.04 1233.98c0.78,-0.17 2.41,0 3.22,-0.8 81.13,-44.18 61.05,-114.88 53.02,-134.96 56.23,-44.19 85.15,-93.19 86.76,-144.6 2.41,-69.09 -44.99,-121.3 -61.06,-137.37 82.75,-93.99 -3.22,-205.65 -4.01,-206.46 -2.41,-3.21 -7.23,-3.21 -9.64,-0.8 -3.22,2.41 -3.22,7.23 -0.81,9.64 3.22,4.01 82.75,107.64 0.81,193.6 -1.61,1.61 -2.41,3.22 -1.61,5.62 0,1.61 0.8,4.01 2.41,4.81 0.8,0.81 63.46,56.24 61.86,130.95 -1.61,49 -30.53,94.79 -85.15,137.36 -2.42,2.41 -3.22,5.62 -1.61,8.85 1.61,3.21 37.76,76.31 -44.99,121.3 -12.77,6.18 -5.03,14.1 0.81,12.85z"/>
   <path class="fil7" d="M1402.67 586.5c36.95,86.76 8.03,182.36 -64.26,212.88 -72.31,30.53 -160.67,-14.46 -197.62,-101.22 -36.96,-86.76 -8.04,-182.35 64.26,-212.87 71.5,-30.53 160.67,14.46 197.62,101.21z"/>
   <path class="fil3" d="M1395.44 589.72c35.35,82.75 8.04,174.32 -60.25,203.24 -68.28,28.93 -153.44,-14.46 -188.78,-97.2 -35.34,-82.75 -8.04,-174.32 60.25,-203.24 69.09,-29.73 153.44,13.65 188.78,97.2l0 0zm-104.44 226.54c16.88,0 33.74,-3.22 50.61,-10.45 75.52,-32.14 106.04,-131.74 67.48,-222.52l0 0c-38.56,-89.98 -131.75,-137.37 -207.26,-105.24 -75.51,32.14 -106.04,131.75 -67.48,222.52 29.73,71.5 93.99,115.68 156.65,115.68z"/>
   <path class="fil8" d="M1401.77 644.98c-9.46,-58.26 -57.98,-98.84 -108.34,-90.66 -50.37,8.19 -83.53,62.05 -74.06,120.3 9.46,58.26 57.97,98.84 108.34,90.65 50.37,-8.18 83.54,-62.04 74.07,-120.29z"/>
   <path class="fil7" d="M1246.82 604.98c-5.62,13.65 3.22,29.72 18.48,36.15 16.06,6.42 32.94,0 38.55,-13.66 5.63,-13.66 -3.21,-29.72 -18.47,-36.15 -16.07,-6.43 -33.74,0 -38.57,13.66z"/>
   <path class="fil0" d="M1071.7 302.93c46.6,16.07 90.78,12.05 98.01,-8.84 7.23,-21.69 -24.11,-52.22 -70.7,-68.29 -46.59,-16.06 -90.78,-12.04 -98.01,8.84 -7.22,20.89 24.11,51.42 70.7,68.29z"/>
   <path class="fil3" d="M1045.19 221.79c16.07,0 33.74,3.22 51.41,9.64 21.69,7.23 40.97,18.48 53.02,30.53 11.25,10.45 16.07,20.88 13.65,28.92 -2.4,7.23 -12.84,12.85 -28.1,13.66 -17.68,1.61 -39.37,-1.61 -61.06,-9.64l0 0c-21.68,-7.23 -40.97,-18.48 -53.01,-30.52 -11.25,-10.45 -16.07,-20.89 -13.66,-28.93 2.41,-7.23 12.85,-12.85 28.12,-13.66 3.21,0 6.42,0 9.64,0zm81.14 98.01c3.21,0 7.23,0 10.45,-0.8 21.68,-1.61 36.15,-10.45 40.17,-23.3 4.81,-12.84 -1.61,-28.92 -16.88,-43.37 -14.46,-13.66 -34.54,-25.71 -58.64,-33.74 -23.3,-8.04 -47.4,-12.05 -66.68,-9.64 -21.68,1.61 -36.15,10.45 -40.17,23.3 -4.82,12.85 1.61,28.92 16.88,43.38 14.46,13.66 34.54,25.71 58.64,33.74l0 0c19.27,7.23 38.56,10.44 56.23,10.44z"/>
   <path class="fil0" d="M849.18 423.42c45.79,-19.27 75.51,-52.21 66.68,-73.1 -8.84,-20.89 -53.02,-22.5 -98.81,-3.22 -45.8,19.28 -75.52,52.22 -66.68,73.1 8.84,20.89 53.01,22.5 98.81,3.22z"/>
   <path class="fil3" d="M845.97 417c-44.99,19.27 -82.74,15.26 -89.17,0.8 -3.22,-7.23 0.8,-18.48 11.25,-29.73 12.05,-12.84 30.53,-24.9 51.41,-33.74 20.89,-8.84 42.57,-13.66 60.25,-12.85 15.27,0.8 26.51,4.82 28.92,12.05 3.22,7.23 -0.8,18.48 -11.25,29.72 -12.04,12.85 -29.72,24.91 -51.41,33.74l0 0zm-57.03 27.31c18.48,0 40.17,-4.82 62.66,-13.66l0 0c23.3,-9.64 42.57,-23.29 56.24,-37.76 14.46,-16.06 19.27,-32.13 14.46,-44.99 -5.62,-12.85 -20.08,-20.08 -41.78,-20.88 -20.08,-0.8 -43.38,4.01 -65.87,14.45 -23.3,9.65 -42.57,23.3 -56.23,37.77 -14.46,16.06 -19.28,32.13 -14.46,44.99 5.62,12.85 22.5,20.08 44.99,20.08z"/>
   <path class="fil0" d="M600.15 221.79c2.41,0 4.82,-0.8 5.61,-3.22 1.61,-3.21 49.81,-70.69 131.75,-36.14 4.01,1.6 8.04,0 9.65,-4.02 1.61,-3.22 0,-8.03 -4.01,-9.64 -92.38,-39.36 -147.81,40.17 -148.62,40.97 -2.41,3.21 -1.61,8.03 1.61,9.64 0.79,2.41 2.4,2.41 4.01,2.41z"/>
   <path class="fil0" d="M670.85 1130.35c3.22,0 4.81,0 4.81,0 4.01,-0.81 6.43,-4.01 6.43,-8.04 -0.8,-4.01 -4.01,-6.42 -8.03,-6.42l0 0c-2.42,0 -54.63,4.81 -71.5,-49.01 -0.8,-4.01 -4.82,-5.62 -8.84,-4.82 -4.01,0.81 -5.62,4.82 -4.82,8.84 17.68,54.63 65.88,59.46 81.95,59.46z"/>
   <path class="fil0" d="M1170.5 1201.84c44.19,0 67.48,-36.95 68.29,-37.76 2.42,-3.22 0.81,-8.04 -2.41,-9.65 -3.21,-2.41 -8.03,-0.8 -9.64,2.42 -1.6,1.6 -29.72,45.79 -82.74,25.71 -4.02,-1.61 -8.04,0.8 -8.84,4.01 -1.61,4.01 0.8,8.04 4.01,8.84 11.25,4.82 21.69,6.43 31.32,6.43z"/>
   <path class="fil0" d="M425.02 894.98c3.22,0 5.62,-1.62 6.43,-4.83 1.61,-4.01 -0.8,-8.03 -4.01,-8.83l0 0c-2.41,-0.81 -51.42,-20.08 -41.77,-76.32 0.8,-4.01 -1.61,-7.23 -5.62,-8.03 -4.02,-0.81 -7.23,1.6 -8.04,5.62 -11.25,67.48 50.61,91.58 51.42,91.58 0,0.82 0.8,0.82 1.6,0.82z"/>
   <path class="fil0" d="M1388.21 945.59l0 0c69.09,-4.01 78.73,-69.09 78.73,-69.89 0.79,-4.02 -2.41,-7.23 -6.43,-8.04 -4.01,-0.8 -7.23,2.42 -8.04,6.43 0,2.41 -8.84,54.63 -65.06,57.83 -4.02,0 -7.23,3.22 -6.43,7.23 0,4.02 3.21,6.43 7.23,6.43z"/>
   <path class="fil0" d="M296.5 555.98l0 0c4.01,0 7.23,-3.22 7.23,-7.23 -2.41,-94.79 78.72,-106.04 81.94,-106.84 3.22,0 5.62,-2.41 6.42,-5.62 5.63,-32.94 19.28,-56.23 40.17,-69.89 30.52,-20.88 68.28,-12.85 68.28,-12.85 4.02,0.8 7.23,-1.61 8.04,-5.62 0.8,-4.01 -1.61,-7.22 -5.62,-8.03 -1.61,0 -43.38,-8.84 -79.52,15.27 -23.3,15.26 -38.57,40.17 -44.99,74.71 -20.08,4.81 -91.58,27.31 -89.18,120.5 0,2.41 3.21,5.62 7.23,5.62z"/>
   <path class="fil0" d="M1587.43 593.73c3.21,0 5.62,-1.6 6.42,-4.82 0.81,-1.61 12.85,-42.57 -8.03,-80.33 -13.66,-24.11 -36.95,-41.77 -70.69,-51.41 -2.41,-20.08 -19.28,-93.99 -111.67,-99.61 -4.01,0 -7.23,2.41 -7.23,6.43 0,4.01 2.42,7.23 6.43,7.23 94.79,5.62 98.81,87.56 98.81,90.78 0,3.22 2.41,5.62 5.62,6.42 32.13,8.84 53.83,24.11 65.87,45.8 17.68,32.94 7.23,69.09 7.23,69.09 -0.79,4.01 0.81,8.03 4.83,8.84 0.8,1.6 1.6,1.6 2.41,1.6z"/>
   <path class="fil0" d="M697.35 1225.14c21.69,0 44.18,-9.65 67.48,-28.92 3.22,-2.42 3.22,-7.23 0.8,-9.65 -2.41,-3.22 -7.23,-3.22 -9.64,-0.8 -23.3,19.27 -46.6,28.11 -67.48,24.9 -30.53,-4.81 -48.2,-32.13 -49.01,-32.13 -1.61,-2.41 -4.81,-4.01 -8.03,-3.22 -83.55,21.69 -113.27,-57.84 -114.07,-61.06 -1.61,-4.01 -5.62,-5.62 -8.84,-4.01 -4.01,1.61 -5.61,5.63 -4.01,8.84 0,0.8 33.74,92.38 126.12,71.5 7.23,8.83 25.71,29.72 55.43,34.54 4.02,0 7.24,0 11.25,0z"/>
   <path class="fil0" d="M1342.42 1201.84c38.56,0 89.17,-12.85 110.86,-73.1 1.61,-4.01 -0.8,-8.04 -4.01,-8.84 -4.01,-1.61 -8.04,0.8 -8.84,4.01 -32.94,92.38 -140.58,58.64 -144.6,57.84 -4.01,-1.61 -8.03,0.8 -8.84,4.81 -0.8,4.02 0.81,8.04 4.82,8.84 0,-0.8 22.49,6.43 50.61,6.43z"/>
   <path class="fil0" d="M1564.13 725.48c3.22,0 5.63,-2.42 6.44,-4.82 0,-1.61 35.34,-126.13 -71.5,-160.67 -4.01,-1.6 -8.04,0.8 -8.84,4.82 -0.8,4.01 0.8,8.04 4.82,8.84 93.18,29.72 63.46,138.17 61.86,142.99 -0.8,4.01 0.8,8.03 4.82,8.84 0.8,0 1.61,0 2.4,0z"/>
   <path class="fil0" d="M1032.34 494.92c3.22,0 5.62,-1.61 6.43,-4.82 42.57,-129.33 -49,-190.39 -70.69,-202.44 4.01,-53.02 -6.43,-92.38 -29.72,-116.48 -24.91,-26.5 -56.23,-26.5 -61.86,-26.5 -4.01,0 -7.22,3.22 -7.22,7.23 0,4.01 3.22,7.23 7.22,7.23 3.22,0 30.53,0 51.42,22.49 20.89,22.5 29.72,59.45 25.71,110.86 0,3.22 1.61,5.62 4.01,7.23 4.82,2.41 111.67,54.63 67.48,187.97 -1.61,4.01 3.19,7.24 7.23,7.24z"/>
   <path class="fil8" d="M665.22 692.54c-16.88,-13.66 -42.58,0 -40.17,21.69 0,0 0,0 0,0.8 12.84,108.45 85.95,203.24 223.32,231.35 122.11,24.91 234.58,-42.56 260.28,-101.22 8.04,-17.67 8.04,-34.54 -2.42,-48.2 -33.74,-44.19 -128.53,17.67 -261.07,-12.85 -79.53,-18.48 -142.19,-60.25 -179.94,-91.58z"/>
   <path class="fil7" d="M625.06 712.63c0,0.8 0,0.8 0,1.61 193.6,217.69 480.38,130.94 483.6,130.13 8.04,-17.68 8.04,-34.54 -2.42,-48.2 -33.74,-44.18 -128.53,17.68 -261.07,-12.85 -79.53,-18.48 -142.99,-61.05 -180.75,-92.38 -16.87,-12.85 -41.77,0.01 -39.36,21.7z"/>
   <path class="fil3" d="M625.06 717.44l0 0zm437.81 69.09c16.87,0 29.72,3.22 36.95,13.66 13.65,17.68 3.22,40.97 -4.82,53.02 -30.52,48.2 -130.13,109.25 -246.62,85.15 -121.3,-24.91 -202.43,-107.64 -216.89,-222.52 -0.81,-9.65 4.01,-16.07 9.64,-18.48 5.62,-3.22 13.66,-4.01 20.89,1.61 38.56,31.33 102.02,73.11 180.74,90.78 67.48,15.27 124.51,7.24 170.31,0.8 19.28,-1.6 36.15,-4.01 49.81,-4.01zm-162.28 171.91c91.58,0 175.13,-45.79 207.26,-97.2 16.07,-25.71 17.68,-50.61 4.01,-69.09 -19.27,-25.71 -54.63,-20.89 -100.41,-14.46 -44.19,6.43 -100.41,13.66 -164.68,-0.8 -76.32,-17.68 -137.36,-57.84 -175.13,-88.37 -10.45,-8.83 -24.9,-9.64 -36.94,-3.21 -12.05,6.42 -18.48,19.27 -16.88,32.94l0 0c15.27,121.3 100.41,208.86 228.15,234.57 18.48,3.21 36.95,5.61 54.63,5.61z"/>
   <path class="fil0" d="M395.3 1164.09c-182.35,-81.95 -227.34,-220.12 -217.7,-358.28 2.41,-30.53 31.34,-52.22 61.86,-44.19 0.8,0 0.8,0 1.61,0 23.3,5.62 39.37,27.31 37.76,51.42 -20.08,281.16 277.95,309.27 505.29,269.91 27.32,-4.82 53.83,14.46 57.84,41.78 4.82,27.3 -14.46,53.82 -41.77,57.83 -77.92,11.25 -267.51,34.54 -404.87,-18.48z"/>
   <path class="fil2" d="M292.48 930.33c23.3,63.46 70.69,110.85 141.39,139.78 87.57,36.15 245.01,26.5 323.74,16.06 -4.82,0.81 -142.19,36.15 -246.62,26.51 -106.04,-9.64 -216.9,-76.32 -218.51,-182.35z"/>
   <path class="fil1" d="M395.3 1164.09c-181.56,-81.14 -226.54,-218.51 -217.7,-355.87 2.41,-31.34 32.94,-53.02 63.46,-44.19 0.8,0 0.8,0 1.61,0.81 39.36,10.44 35.34,49.8 35.34,49.8 -123.71,181.55 74.71,389.61 502.89,371.93 -61.86,7.24 -261.89,28.93 -385.6,-22.48z"/>
   <path class="fil0" d="M790.54 1116.7c1.61,1.6 6.43,7.22 16.88,12.04 3.21,1.61 6.42,3.22 10.44,4.83 11.25,4.81 27.32,8.83 47.4,9.63 16.87,0.8 37.75,-0.8 61.85,-5.62 13.66,-3.22 22.49,-16.07 20.08,-29.72 -2.41,-11.25 -11.25,-19.28 -22.5,-20.08 -2.4,0 -4.81,0 -8.03,0 -46.6,9.65 -72.3,2.41 -82.75,-3.22 -3.21,-1.61 -5.62,-3.22 -5.62,-3.22l0.81 0.8 -38.56 34.55z"/>
   <path class="fil0" d="M776.88 1103.04c-0.8,11.25 5.62,20.88 16.07,24.9 2.41,0.81 4.82,1.61 8.04,1.61 2.4,0 4.82,0 6.43,-0.8 11.24,-2.41 19.27,-11.24 20.07,-23.29 0.8,-7.23 2.41,-14.46 5.62,-20.08 2.41,-4.82 5.62,-8.84 8.04,-12.05 8.04,-9.65 16.07,-15.27 16.07,-15.27 12.04,-8.03 14.46,-23.29 7.23,-35.34 -8.04,-11.25 -23.3,-14.46 -35.35,-7.23l0 0c-0.81,1.61 -49,33.74 -52.22,87.56z"/>
   <path class="fil0" d="M825.08 1144.81l0 0zm-28.12 38.56c20.08,8.04 37.76,8.84 52.22,2.41 14.46,-6.42 22.5,-19.27 24.91,-28.11 3.22,-13.66 -4.83,-27.31 -18.48,-30.53 -12.04,-3.22 -23.29,2.41 -28.92,12.85 -3.22,0 -8.84,-1.61 -19.28,-7.23 -12.04,-6.42 -27.31,-1.61 -34.54,10.45 -6.42,12.05 -1.61,27.31 10.45,34.54 5.63,2.41 9.65,4.02 13.66,5.62z"/>
   <path class="fil3" d="M828.29 1197.83c8.84,0 16.07,-1.61 23.3,-4.82 16.88,-7.23 26.51,-21.68 28.92,-32.94 1.61,-5.62 1.61,-12.05 0,-17.68 -0.8,-4.01 -4.81,-5.62 -8.83,-4.81 -4.02,0.8 -5.62,4.81 -4.82,8.83 0.79,3.22 0.79,6.43 0,9.65 -2.41,8.04 -8.84,18.48 -20.89,24.1 -12.85,5.62 -25.84,4.46 -44.32,-2.77 0,0 -10.31,0.37 -11.11,4.39 -1.61,4.01 0,8.03 4.01,8.84 12.06,4.81 23.3,7.22 33.74,7.22z"/>
   <path class="fil2" d="M863.64 1143.2l1.61 0c16.87,0.8 37.76,-0.8 61.86,-5.62 13.65,-3.22 22.49,-16.07 20.08,-29.72 -2.42,-11.25 -11.25,-19.28 -22.51,-20.08 1.62,4.01 20.9,41.76 -61.04,55.43z"/>
   <path class="fil2" d="M829.9 1015.48c5.62,1.61 28.93,10.44 11.25,57.84 8.04,-9.65 16.07,-15.27 16.07,-15.27 12.04,-8.04 14.46,-23.3 7.23,-35.34 -7.22,-11.25 -22.49,-14.46 -34.54,-7.23z"/>
   <path class="fil3" d="M874.89 1151.23c16.88,0 34.55,-1.6 53.83,-5.62 8.84,-1.61 16.07,-6.43 20.88,-13.65 4.83,-7.23 6.44,-16.07 4.83,-24.11 -1.61,-8.84 -6.43,-16.07 -13.67,-20.88 -7.22,-4.82 -16.06,-6.43 -24.09,-4.82 -44.99,8.84 -68.29,2.41 -78.73,-2.41 -3.22,-1.61 -8.04,0 -9.65,3.22 -1.61,3.21 -1.61,8.03 1.61,9.65 12.05,5.61 40.17,13.65 89.18,3.21 4.82,-0.8 9.64,0 13.65,2.41 4.01,2.41 7.23,6.43 8.04,11.25 0.8,4.82 0,9.65 -2.41,13.66 -2.41,4.01 -6.43,7.23 -11.25,8.03 -24.11,4.82 -46.6,6.43 -66.68,4.82 -4.01,-0.8 -7.23,2.41 -8.03,6.43 0,4.01 2.41,7.23 6.42,8.04 4.01,-0.01 9.64,0.79 16.06,0.79z"/>
   <path class="fil3" d="M833.11 1092.6c2.41,0 4.82,-1.62 6.43,-4.02 8.04,-15.26 22.5,-24.91 22.5,-24.91 14.45,-9.64 18.48,-29.72 8.83,-44.98 -4.81,-7.23 -12.05,-12.05 -20.88,-13.66 -8.84,-1.61 -16.88,0 -24.11,4.82 -1.61,0.8 -35.2,27.31 -47.25,71.49 -0.8,4.01 -4.16,7.23 -0.14,8.03 4.01,0.8 11.25,-0.62 12.05,-4.65 11.25,-38.56 41.77,-62.02 43.38,-62.83 4.01,-2.41 8.84,-4.01 13.66,-2.41 4.82,0.8 8.84,4.01 11.25,8.03 5.62,8.05 3.22,20.08 -4.82,24.91 0,0 -16.88,12.05 -27.31,30.53 -1.61,3.21 -0.81,8.03 3.21,9.65 1.61,0 2.42,0 3.22,0z"/>
   <path class="fil3" d="M633.09 1206.67c59.45,0 117.29,-6.43 167.09,-16.06 4.01,-0.81 6.43,-4.83 5.62,-8.05 -0.8,-4.01 -4.82,-6.42 -8.04,-5.61 -153.43,31.33 -379.97,25.71 -512.52,-90.78 -75.51,-66.67 -109.25,-159.86 -101.22,-278.75 0.81,-12.85 7.23,-24.11 17.68,-31.34 10.44,-7.22 23.3,-9.64 36.15,-7.22 20.89,4.81 34.54,24.1 32.94,44.99 -7.23,87.56 17.68,156.65 73.1,206.46 103.64,93.18 295.62,97.2 441.03,69.89 4.01,-0.8 6.43,-4.82 5.62,-8.04 -0.8,-4.01 -4.82,-6.42 -8.04,-5.62 -142.19,26.51 -329.36,23.3 -428.97,-66.67 -52.22,-46.6 -74.71,-112.47 -68.29,-195.21 2.41,-28.11 -16.07,-53.02 -43.38,-60.25 -16.87,-4.01 -33.74,-0.8 -47.4,8.84 -13.66,9.65 -22.49,24.91 -23.3,41.77 -8.84,122.91 26.51,220.92 105.24,290 92.38,82.74 228.95,111.66 356.68,111.66z"/>
   <path class="fil9" d="M1784.27 311.77l-4.78 30.03c-2.06,15.01 -14.34,26.61 -29.35,28.66l-28.67 4.09 29.35 5.46c13.64,2.73 24.57,13.64 27.3,27.3l5.45 29.35 5.46 -28.67c2.73,-13.64 12.96,-24.57 26.61,-27.3l30.03 -6.14 -27.98 -3.41c-15.01,-2.05 -26.61,-13.65 -29.35,-28.67l-4.08 -30.7z"/>
   <path class="fil10" d="M1810.88 374.55c-12.97,4.1 -23.21,14.34 -26.62,27.3 -3.41,-12.97 -13.65,-23.88 -25.93,-27.98 12.28,-4.09 22.52,-13.65 26.62,-26.62 3.41,13.64 13.65,23.88 25.93,27.3zm-26.61 67.57c2.73,0 5.45,-2.05 6.14,-4.78l5.45 -28.67c2.05,-11.6 10.93,-20.48 21.83,-22.53l30.04 -6.14c2.73,-0.69 4.78,-3.41 4.78,-6.14 0,-2.73 -2.05,-5.45 -5.45,-6.14l-27.98 -3.41c-12.29,-1.36 -21.84,-10.93 -23.89,-23.21l-4.78 -30.7c-0.69,-2.74 -3.41,-5.46 -6.14,-5.46 -2.73,0 -5.46,2.05 -6.14,5.46l-4.78 30.02c-2.05,12.28 -11.61,21.83 -23.89,23.88l-28.67 4.1c-2.74,0.68 -5.45,2.73 -5.45,6.14 0,2.73 2.05,5.45 4.78,6.14l29.35 5.45c11.6,2.05 20.47,10.93 22.52,22.53l5.45 29.35c1.37,2.05 3.42,4.1 6.83,4.1l0 0z"/>
   <path class="fil9" d="M1918.94 489.97l-3.41 21.15c-1.36,10.24 -10.23,19.11 -20.47,20.48l-19.79 2.73 21.16 4.09c9.55,2.05 17.75,9.56 19.11,19.11l3.41 20.47 3.42 -20.47c2.05,-9.55 9.55,-17.07 19.11,-19.11l21.15 -4.09 -19.79 -2.73c-10.23,-1.36 -19.11,-9.55 -20.47,-19.79l-3.42 -21.84z"/>
   <path class="fil10" d="M1932.59 534.34c-6.14,2.73 -10.93,8.19 -13.65,14.33 -2.72,-6.14 -7.5,-10.92 -13.64,-14.33 6.14,-2.74 10.93,-7.51 13.64,-13.65 2.73,5.45 8.2,10.92 13.65,13.65zm-13.65 49.14c2.73,0 5.46,-2.06 6.14,-4.78l3.41 -20.48c1.37,-7.5 6.83,-12.97 14.34,-14.33l21.16 -4.08c2.73,-0.69 4.78,-3.42 4.78,-6.15 0,-2.74 -2.05,-5.46 -5.45,-6.15l-19.79 -2.73c-7.5,-0.69 -14.33,-6.82 -15.69,-15.01l-3.41 -21.16c-0.69,-2.73 -3.41,-5.45 -6.15,-5.45 -2.73,0 -5.45,2.05 -6.14,5.45l-3.41 21.16c-1.36,7.5 -7.5,14.33 -15.02,15.01l-19.79 2.73c-2.73,0.69 -5.46,2.74 -5.46,6.15 0,3.41 2.05,5.45 4.78,6.15l21.15 4.08c7.51,1.36 12.97,6.83 14.34,14.33l3.41 20.48c1.36,2.73 4.09,4.78 6.81,4.78l0 0z"/>
   <path class="fil9" d="M1842.31 688.97l-3.41 21.16c-1.36,10.24 -10.23,19.11 -20.48,20.48l-19.79 2.73 21.16 4.09c9.55,2.05 17.74,9.56 19.11,19.11l3.41 20.47 3.41 -20.47c2.05,-9.55 9.56,-17.07 19.11,-19.11l21.16 -4.09 -19.79 -2.73c-10.24,-1.36 -19.11,-9.56 -20.48,-19.79l-3.41 -21.84z"/>
   <path class="fil10" d="M1855.96 733.33c-6.14,2.73 -10.91,8.19 -13.64,14.33 -2.73,-6.14 -7.5,-10.92 -13.64,-14.33 6.14,-2.73 10.92,-7.5 13.64,-13.65 2.74,5.46 8.2,10.93 13.64,13.65zm-13.64 49.14c2.74,0 5.46,-2.05 6.15,-4.78l3.41 -20.47c1.36,-7.5 6.83,-12.97 14.33,-14.33l21.15 -4.1c2.74,-0.69 4.78,-3.41 4.78,-6.14 0,-2.73 -2.05,-5.45 -5.45,-6.14l-19.79 -2.73c-7.51,-0.69 -14.33,-6.83 -15.7,-15.02l-3.41 -21.16c-0.68,-2.73 -3.41,-5.45 -6.14,-5.45 -2.73,0 -5.45,2.05 -6.14,5.45l-3.41 21.16c-1.36,7.5 -7.51,14.33 -15.02,15.02l-19.79 2.73c-2.73,0.69 -5.46,2.73 -5.46,6.14 0,3.41 2.05,5.45 4.78,6.14l21.16 4.1c7.51,1.36 12.97,6.83 14.34,14.33l3.41 20.47c1.36,2.74 4.08,4.78 6.81,4.78l0 0z"/>
   <path class="fil8" d="M803.23 678.68c1.33,0 2.64,-0.48 3.67,-1.42 1.84,-1.69 2.29,-4.41 1.09,-6.59 -26.38,-48.24 -94.69,-90.42 -97.59,-92.18 -2.54,-1.56 -5.88,-0.76 -7.45,1.79 -1.55,2.55 -0.75,5.88 1.8,7.44 0.59,0.37 51.51,31.8 81.46,69.82 -38.83,-19.56 -129.47,-55 -231.16,-24.33 -2.86,0.87 -4.48,3.89 -3.61,6.75 0.86,2.86 3.86,4.49 6.75,3.63 129.68,-39.12 240.94,33.45 242.06,34.18 0.91,0.61 1.96,0.91 2.99,0.91z"/>
   <path class="fil8" d="M707.59 579.32c0.67,0 1.36,0.18 1.96,0.55 2.88,1.77 70.83,43.69 97.01,91.58 0.84,1.54 0.53,3.44 -0.77,4.62 -1.25,1.14 -3.24,1.29 -4.65,0.36 -1.1,-0.75 -112.51,-73.9 -243.42,-34.4 -2,0.59 -4.12,-0.53 -4.72,-2.54 -0.3,-0.97 -0.19,-2 0.29,-2.89 0.47,-0.89 1.27,-1.54 2.24,-1.84 102.65,-30.95 195.01,6.63 229.95,24.23l6.53 3.28 -4.52 -5.74c-30.02,-38.12 -81.37,-69.89 -81.88,-70.21 -1.78,-1.09 -2.35,-3.43 -1.26,-5.2 0.72,-1.17 1.97,-1.81 3.25,-1.81zm95.64 100.98c1.76,0 3.45,-0.66 4.76,-1.84 2.4,-2.2 2.98,-5.73 1.42,-8.57 -26.6,-48.64 -95.25,-91.01 -98.17,-92.79 -3.29,-2.03 -7.64,-0.98 -9.68,2.33 -2.03,3.32 -0.98,7.66 2.33,9.68 0.48,0.3 46.29,28.64 76.31,63.71 -39.44,-18.67 -127.88,-50.63 -225.63,-21.15 -1.8,0.54 -3.28,1.75 -4.17,3.41 -0.89,1.65 -1.07,3.56 -0.53,5.36 1.12,3.7 5.04,5.81 8.76,4.7 129.49,-39.07 239.6,33.25 240.69,33.99 1.17,0.78 2.51,1.18 3.9,1.18z"/>
  </g>
 </g>
</svg>
