<?xml version="1.0" encoding="UTF-8"?>
<!DOCTYPE svg PUBLIC "-//W3C//DTD SVG 1.1//EN" "http://www.w3.org/Graphics/SVG/1.1/DTD/svg11.dtd">
<!-- Creator: CorelDRAW -->
<svg xmlns="http://www.w3.org/2000/svg" xml:space="preserve" width="11.7mm" height="13.8228mm" version="1.1" style="shape-rendering:geometricPrecision; text-rendering:geometricPrecision; image-rendering:optimizeQuality; fill-rule:evenodd; clip-rule:evenodd"
viewBox="0 0 21.16 24.99"
 xmlns:xlink="http://www.w3.org/1999/xlink"
 xmlns:xodm="http://www.corel.com/coreldraw/odm/2003">
 <defs>
  <style type="text/css">
   <![CDATA[
    .fil0 {fill:#FFED00;fill-rule:nonzero}
   ]]>
  </style>
 </defs>
 <g id="Слой_x0020_1">
  <metadata id="CorelCorpID_0Corel-Layer"/>
  <path class="fil0" d="M12.41 13.6c0.58,1.78 2.49,2.75 4.26,2.17 0.82,-0.27 1.47,-0.82 1.88,-1.51l0.01 -0.02c0.02,-0.05 0.03,-0.09 0.06,-0.14 0.04,-0.1 0.1,-0.2 0.15,-0.29 0.09,-0.15 0.18,-0.3 0.29,-0.43l2.09 6.42 -15.96 5.19 -2.09 -6.41c0.23,0.06 0.46,0.15 0.67,0.26 0.02,0.01 0.03,0.02 0.05,0.03l0 -0c0.02,0.01 0.03,0.02 0.05,0.03 0.77,0.39 1.69,0.49 2.58,0.2 1.78,-0.58 2.75,-2.49 2.17,-4.26 -0.58,-1.78 -2.49,-2.75 -4.26,-2.17 -0.82,0.27 -1.47,0.82 -1.88,1.51l-0.01 0.02c-0.02,0.05 -0.03,0.09 -0.06,0.14 -0.04,0.1 -0.1,0.2 -0.15,0.29 -0.09,0.16 -0.19,0.31 -0.31,0.45l-1.97 -6.04 6.34 -2.06c-0.19,-0.17 -0.39,-0.32 -0.6,-0.44 -0.09,-0.05 -0.19,-0.11 -0.29,-0.15 -0.04,-0.02 -0.09,-0.04 -0.14,-0.06l-0.02 -0.01c-0.69,-0.4 -1.25,-1.05 -1.51,-1.88 -0.58,-1.78 0.39,-3.69 2.17,-4.27 1.78,-0.58 3.68,0.4 4.26,2.17 0.29,0.89 0.19,1.81 -0.2,2.58 -0.01,0.02 -0.02,0.03 -0.03,0.05l0 0c-0.01,0.01 -0.02,0.03 -0.03,0.05 -0.14,0.27 -0.24,0.57 -0.3,0.87l6.32 -2.06 1.96 6.01c-0.23,-0.06 -0.44,-0.14 -0.65,-0.25 -0.02,-0.01 -0.03,-0.02 -0.05,-0.03l-0 0c-0.02,-0.01 -0.03,-0.02 -0.05,-0.03 -0.77,-0.39 -1.69,-0.49 -2.58,-0.2 -1.78,0.58 -2.75,2.49 -2.17,4.26z"/>
 </g>
</svg>
