<?xml version="1.0" encoding="UTF-8"?>
<!DOCTYPE svg PUBLIC "-//W3C//DTD SVG 1.1//EN" "http://www.w3.org/Graphics/SVG/1.1/DTD/svg11.dtd">
<!-- Creator: CorelDRAW -->
<svg xmlns="http://www.w3.org/2000/svg" xml:space="preserve" width="14.726mm" height="12.2202mm" version="1.1" style="shape-rendering:geometricPrecision; text-rendering:geometricPrecision; image-rendering:optimizeQuality; fill-rule:evenodd; clip-rule:evenodd"
viewBox="0 0 48.56 40.3"
 xmlns:xlink="http://www.w3.org/1999/xlink"
 xmlns:xodm="http://www.corel.com/coreldraw/odm/2003">
 <defs>
  <style type="text/css">
   <![CDATA[
    .fil0 {fill:#EF7F1A;fill-rule:nonzero}
   ]]>
  </style>
 </defs>
 <g id="Слой_x0020_1">
  <metadata id="CorelCorpID_0Corel-Layer"/>
  <path class="fil0" d="M26.22 23.13c-2.95,1.54 -4.08,5.18 -2.54,8.12 0.71,1.37 1.88,2.34 3.21,2.85l0.05 0.01c0.09,0.01 0.17,0.03 0.26,0.06 0.19,0.05 0.37,0.11 0.55,0.18 0.29,0.11 0.57,0.24 0.84,0.39l-10.65 5.57 -5.47 -10.47c-0.23,0.35 -0.41,0.73 -0.56,1.12 -0.07,0.18 -0.13,0.36 -0.18,0.55 -0.03,0.08 -0.05,0.17 -0.06,0.26l-0.01 0.05c-0.5,1.33 -1.48,2.5 -2.85,3.21 -2.95,1.54 -6.58,0.4 -8.12,-2.54 -1.54,-2.95 -0.4,-6.58 2.55,-8.12 1.47,-0.77 3.12,-0.87 4.59,-0.41 0.03,0.01 0.07,0.02 0.1,0.03l0 -0c0.03,0.01 0.06,0.02 0.09,0.03 0.5,0.16 1.02,0.25 1.54,0.27l-5.45 -10.43 10.63 -5.56c-0.04,0.43 -0.12,0.85 -0.25,1.26 -0.01,0.03 -0.02,0.06 -0.03,0.09l0 0c-0.01,0.03 -0.02,0.06 -0.03,0.1 -0.46,1.47 -0.36,3.11 0.41,4.59 1.54,2.95 5.18,4.09 8.12,2.55 2.95,-1.54 4.08,-5.18 2.54,-8.12 -0.71,-1.37 -1.88,-2.34 -3.21,-2.85l-0.05 -0.01c-0.09,-0.01 -0.17,-0.03 -0.26,-0.06 -0.19,-0.05 -0.37,-0.11 -0.55,-0.18 -0.3,-0.11 -0.59,-0.25 -0.87,-0.41l10.02 -5.24 5.49 10.51c0.24,-0.38 0.44,-0.77 0.6,-1.19 0.07,-0.18 0.13,-0.36 0.18,-0.55 0.03,-0.08 0.05,-0.17 0.06,-0.26l0.01 -0.05c0.5,-1.33 1.48,-2.5 2.85,-3.21 2.95,-1.54 6.58,-0.4 8.12,2.54 1.54,2.95 0.4,6.58 -2.55,8.12 -1.47,0.77 -3.12,0.87 -4.59,0.41 -0.03,-0.01 -0.07,-0.02 -0.1,-0.03l-0 0c-0.03,-0.01 -0.06,-0.02 -0.09,-0.03 -0.52,-0.16 -1.07,-0.26 -1.62,-0.27l5.47 10.47 -9.96 5.21c0.04,-0.41 0.12,-0.82 0.25,-1.22 0.01,-0.03 0.02,-0.06 0.03,-0.09l-0 -0c0.01,-0.03 0.02,-0.06 0.03,-0.1 0.46,-1.47 0.36,-3.11 -0.41,-4.59 -1.54,-2.95 -5.18,-4.09 -8.12,-2.55z"/>
 </g>
</svg>
