<?xml version="1.0" encoding="UTF-8"?>
<!DOCTYPE svg PUBLIC "-//W3C//DTD SVG 1.1//EN" "http://www.w3.org/Graphics/SVG/1.1/DTD/svg11.dtd">
<!-- Creator: CorelDRAW -->
<svg xmlns="http://www.w3.org/2000/svg" xml:space="preserve" width="11.7mm" height="13.8228mm" version="1.1" style="shape-rendering:geometricPrecision; text-rendering:geometricPrecision; image-rendering:optimizeQuality; fill-rule:evenodd; clip-rule:evenodd"
viewBox="0 0 116.58 137.73"
 xmlns:xlink="http://www.w3.org/1999/xlink"
 xmlns:xodm="http://www.corel.com/coreldraw/odm/2003">
 <defs>
  <style type="text/css">
   <![CDATA[
    .fil0 {fill:#569989;fill-rule:nonzero}
   ]]>
  </style>
 </defs>
 <g id="Слой_x0020_1">
  <metadata id="CorelCorpID_0Corel-Layer"/>
  <path class="fil0" d="M68.4 74.97c3.19,9.79 13.71,15.14 23.5,11.95 4.54,-1.48 8.12,-4.53 10.35,-8.34l0.07 -0.13c0.09,-0.26 0.19,-0.51 0.31,-0.76 0.24,-0.55 0.52,-1.08 0.82,-1.59 0.48,-0.83 1.02,-1.63 1.62,-2.37l11.51 35.39 -87.96 28.62 -11.5 -35.33c1.28,0.35 2.53,0.82 3.71,1.41 0.09,0.05 0.19,0.1 0.27,0.15l0.01 -0c0.09,0.05 0.19,0.09 0.29,0.16 4.24,2.16 9.32,2.71 14.22,1.12 9.79,-3.19 15.16,-13.7 11.97,-23.49 -3.19,-9.79 -13.71,-15.14 -23.5,-11.95 -4.54,1.48 -8.12,4.53 -10.34,8.34l-0.07 0.13c-0.09,0.26 -0.19,0.52 -0.32,0.76 -0.24,0.55 -0.52,1.08 -0.82,1.59 -0.5,0.86 -1.06,1.69 -1.7,2.46l-10.83 -33.3 34.94 -11.37c-1.02,-0.93 -2.14,-1.74 -3.32,-2.43 -0.52,-0.3 -1.05,-0.58 -1.59,-0.82 -0.24,-0.12 -0.5,-0.23 -0.76,-0.31l-0.13 -0.07c-3.81,-2.22 -6.86,-5.8 -8.34,-10.34 -3.19,-9.79 2.16,-20.32 11.95,-23.5 9.79,-3.19 20.31,2.18 23.49,11.97 1.59,4.9 1.04,9.97 -1.12,14.22 -0.06,0.1 -0.11,0.19 -0.16,0.28l0 0.01c-0.05,0.08 -0.1,0.17 -0.15,0.27 -0.77,1.51 -1.34,3.13 -1.67,4.8l34.81 -11.33 10.77 33.12c-1.25,-0.33 -2.44,-0.8 -3.58,-1.38 -0.09,-0.05 -0.19,-0.09 -0.27,-0.15l-0.01 0c-0.09,-0.05 -0.19,-0.1 -0.28,-0.16 -4.24,-2.16 -9.32,-2.71 -14.22,-1.12 -9.79,3.19 -15.16,13.7 -11.97,23.49z"/>
 </g>
</svg>
