<?xml version="1.0" encoding="UTF-8"?>
<!DOCTYPE svg PUBLIC "-//W3C//DTD SVG 1.1//EN" "http://www.w3.org/Graphics/SVG/1.1/DTD/svg11.dtd">
<!-- Creator: CorelDRAW -->
<svg xmlns="http://www.w3.org/2000/svg" xml:space="preserve" width="14.726mm" height="12.2202mm" version="1.1" style="shape-rendering:geometricPrecision; text-rendering:geometricPrecision; image-rendering:optimizeQuality; fill-rule:evenodd; clip-rule:evenodd"
viewBox="0 0 526.24 436.69"
 xmlns:xlink="http://www.w3.org/1999/xlink"
 xmlns:xodm="http://www.corel.com/coreldraw/odm/2003">
 <defs>
  <style type="text/css">
   <![CDATA[
    .fil0 {fill:#5B7EC1;fill-rule:nonzero}
   ]]>
  </style>
 </defs>
 <g id="Слой_x0020_1">
  <metadata id="CorelCorpID_0Corel-Layer"/>
  <path class="fil0" d="M284.11 250.61c-31.93,16.69 -44.24,56.1 -27.56,88.03 7.74,14.81 20.35,25.38 34.8,30.83l0.49 0.15c0.95,0.15 1.89,0.36 2.8,0.65 2.03,0.52 4.01,1.18 5.98,1.91 3.13,1.18 6.2,2.56 9.11,4.2l-115.38 60.31 -59.32 -113.49c-2.46,3.81 -4.43,7.88 -6.02,12.11 -0.73,1.96 -1.39,3.95 -1.92,5.98 -0.29,0.91 -0.5,1.84 -0.64,2.8l-0.16 0.49c-5.45,14.45 -16.02,27.06 -30.83,34.8 -31.93,16.69 -71.34,4.37 -88.03,-27.56 -16.69,-31.93 -4.3,-71.32 27.63,-88.01 15.96,-8.34 33.8,-9.41 49.7,-4.42 0.38,0.15 0.73,0.26 1.08,0.38l0.05 -0.03c0.3,0.14 0.66,0.24 1,0.35 5.4,1.69 11.01,2.68 16.68,2.88l-59.11 -113.08 115.19 -60.21c-0.4,4.61 -1.34,9.2 -2.73,13.61 -0.11,0.35 -0.22,0.7 -0.35,1l0.03 0.05c-0.11,0.35 -0.22,0.7 -0.38,1.07 -4.99,15.9 -3.92,33.74 4.42,49.7 16.69,31.93 56.08,44.32 88.01,27.62 31.93,-16.68 44.24,-56.1 27.56,-88.03 -7.74,-14.81 -20.35,-25.38 -34.8,-30.83l-0.49 -0.15c-0.95,-0.15 -1.89,-0.36 -2.8,-0.65 -2.03,-0.52 -4.02,-1.18 -5.98,-1.91 -3.27,-1.22 -6.43,-2.67 -9.46,-4.43l108.57 -56.75 59.54 113.91c2.62,-4.07 4.77,-8.35 6.45,-12.86 0.73,-1.96 1.39,-3.95 1.92,-5.97 0.29,-0.91 0.5,-1.85 0.65,-2.8l0.15 -0.49c5.45,-14.45 16.02,-27.06 30.83,-34.8 31.93,-16.69 71.34,-4.37 88.03,27.56 16.69,31.93 4.3,71.32 -27.62,88.01 -15.96,8.34 -33.8,9.41 -49.7,4.43 -0.38,-0.16 -0.73,-0.27 -1.08,-0.38l-0.05 0.03c-0.3,-0.13 -0.65,-0.24 -1,-0.35 -5.67,-1.78 -11.59,-2.79 -17.51,-2.91l59.3 113.45 -107.97 56.44c0.43,-4.45 1.33,-8.89 2.67,-13.17 0.11,-0.35 0.22,-0.7 0.35,-1l-0.03 -0.05c0.11,-0.35 0.22,-0.7 0.38,-1.08 4.99,-15.9 3.92,-33.73 -4.42,-49.7 -16.69,-31.93 -56.08,-44.31 -88.01,-27.62z"/>
 </g>
</svg>
