<svg width="54" height="54" viewBox="0 0 54 54" fill="none" xmlns="http://www.w3.org/2000/svg">
<g clip-path="url(#clip0_7_19)">
<path d="M44.8247 14.0444L39.2735 8.54725L36.4067 11.4423C34.5861 10.2878 32.6092 9.48768 30.569 9.05366L30.544 4.98259L22.7421 5.01758L22.7577 9.09101C20.718 9.53735 18.7469 10.3567 16.9337 11.5268L14.0432 8.6594L8.5449 14.2103L11.4401 17.0765C10.2853 18.8969 9.48497 20.8736 9.05781 22.9218L4.98499 22.9423L5.01941 30.7432L9.0887 30.7285C9.53966 32.7667 10.359 34.7375 11.5279 36.5456L8.65991 39.4359L14.2112 44.9331L17.0791 42.0428C18.8997 43.1972 20.8766 43.9973 22.9251 44.4243L22.9453 48.4965L30.7531 48.4651L30.7329 44.3928C32.7702 43.9371 34.7425 43.1224 36.551 41.9536L39.4462 44.8197L44.9456 39.2735L42.0504 36.4074C43.2052 34.587 44.0056 32.6103 44.4398 30.5703L48.5126 30.5497L48.4711 22.7407L44.3971 22.7565C43.9509 20.7172 43.1315 18.7464 41.9627 16.9382L44.8294 14.0432L44.8247 14.0444ZM36.9813 22.7948C37.9458 25.3045 37.9582 28.088 37.0122 30.6015C36.9417 30.7993 36.8641 30.9888 36.7724 31.1819C36.2506 32.3734 35.505 33.4908 34.538 34.4637C33.571 35.4365 32.4603 36.1953 31.273 36.7281C31.0812 36.8212 30.8905 36.899 30.694 36.9733C28.1909 37.9461 25.407 37.9587 22.8838 37.0154C22.686 36.9449 22.4894 36.8591 22.2975 36.7722C21.1059 36.2504 19.993 35.5039 19.0154 34.5383C18.0425 33.5715 17.2837 32.461 16.7509 31.2739C16.6578 31.0821 16.5741 30.8879 16.4998 30.6914C15.5412 28.1852 15.5288 25.4017 16.4654 22.8906C16.5359 22.6928 16.6217 22.4962 16.7087 22.3043C17.2306 21.1128 17.9773 20.0001 18.9431 19.0225C19.9101 18.0497 21.0161 17.2921 22.2082 16.7581C22.4011 16.6697 22.5941 16.5813 22.7907 16.507C25.2961 15.5436 28.08 15.5311 30.5926 16.472C30.7904 16.5425 30.987 16.6283 31.1789 16.7152C32.3705 17.2369 33.4881 17.9823 34.461 18.9491C35.4386 19.9147 36.1962 21.0205 36.7255 22.2135C36.8186 22.4053 36.9023 22.5994 36.9766 22.7959L36.9813 22.7948Z" fill="#607DC1"/>
</g>
<defs>
<clipPath id="clip0_7_19">
<rect width="44.0933" height="44.0933" fill="white" transform="translate(0 10.7231) rotate(-14.075)"/>
</clipPath>
</defs>
</svg>
