<?xml version="1.0" encoding="UTF-8"?>
<!DOCTYPE svg PUBLIC "-//W3C//DTD SVG 1.1//EN" "http://www.w3.org/Graphics/SVG/1.1/DTD/svg11.dtd">
<!-- Creator: CorelDRAW -->
<svg xmlns="http://www.w3.org/2000/svg" xml:space="preserve" width="6.4313mm" height="6.4323mm" version="1.1" style="shape-rendering:geometricPrecision; text-rendering:geometricPrecision; image-rendering:optimizeQuality; fill-rule:evenodd; clip-rule:evenodd"
viewBox="0 0 90.85 90.86"
 xmlns:xlink="http://www.w3.org/1999/xlink"
 xmlns:xodm="http://www.corel.com/coreldraw/odm/2003">
 <defs>
  <style type="text/css">
   <![CDATA[
    .fil0 {fill:#D66767;fill-rule:nonzero}
   ]]>
  </style>
 </defs>
 <g id="Слой_x0020_1">
  <metadata id="CorelCorpID_0Corel-Layer"/>
  <path class="fil0" d="M87.92 29.1l-8.34 -13.77 -7.18 4.35c-3.06,-3.22 -6.61,-5.81 -10.47,-7.7l1.99 -8.15 -15.61 -3.84 -2.01 8.15c-4.3,-0.13 -8.65,0.52 -12.86,1.95l-4.34 -7.18 -13.77 8.34 4.35 7.18c-3.22,3.06 -5.81,6.61 -7.69,10.49l-8.15 -2 -3.84 15.61 8.14 2.01c-0.12,4.3 0.53,8.65 1.96,12.85l-7.18 4.34 8.34 13.77 7.18 -4.34c3.06,3.22 6.61,5.81 10.49,7.69l-2 8.15 15.62 3.85 2 -8.15c4.3,0.11 8.65,-0.53 12.85,-1.96l4.35 7.18 13.77 -8.33 -4.35 -7.18c3.22,-3.06 5.81,-6.61 7.7,-10.47l8.15 2 3.83 -15.63 -8.15 -2.01c0.13,-4.3 -0.52,-8.65 -1.95,-12.85l7.18 -4.35zm-20.06 13.56l0 0c0.67,5.5 -0.7,11.07 -3.85,15.62 -0.24,0.36 -0.49,0.7 -0.77,1.04 -1.64,2.12 -3.69,3.98 -6.11,5.44 -2.42,1.46 -5.02,2.42 -7.66,2.89 -0.43,0.09 -0.85,0.15 -1.28,0.2 -5.49,0.69 -11.06,-0.68 -15.63,-3.83 -0.36,-0.24 -0.71,-0.51 -1.05,-0.78 -2.12,-1.64 -3.97,-3.69 -5.44,-6.11 -1.46,-2.42 -2.42,-5.02 -2.89,-7.66 -0.09,-0.43 -0.16,-0.86 -0.21,-1.29 -0.66,-5.49 0.71,-11.06 3.84,-15.61 0.24,-0.36 0.51,-0.71 0.78,-1.05 1.64,-2.12 3.69,-3.97 6.11,-5.44 2.42,-1.46 5.01,-2.42 7.66,-2.89 0.43,-0.08 0.86,-0.16 1.29,-0.21 5.49,-0.67 11.06,0.7 15.61,3.84 0.36,0.24 0.71,0.51 1.05,0.78 2.12,1.64 3.98,3.69 5.44,6.11 1.47,2.42 2.43,5.01 2.89,7.66 0.09,0.43 0.16,0.86 0.21,1.29z"/>
 </g>
</svg>
