<?xml version="1.0" encoding="UTF-8"?>
<!DOCTYPE svg PUBLIC "-//W3C//DTD SVG 1.1//EN" "http://www.w3.org/Graphics/SVG/1.1/DTD/svg11.dtd">
<!-- Creator: CorelDRAW -->
<svg xmlns="http://www.w3.org/2000/svg" xml:space="preserve" width="16.8358mm" height="20.4559mm" version="1.1" style="shape-rendering:geometricPrecision; text-rendering:geometricPrecision; image-rendering:optimizeQuality; fill-rule:evenodd; clip-rule:evenodd"
viewBox="0 0 622.55 756.41"
 xmlns:xlink="http://www.w3.org/1999/xlink"
 xmlns:xodm="http://www.corel.com/coreldraw/odm/2003">
 <defs>
  <style type="text/css">
   <![CDATA[
    .fil0 {fill:#5B7EC1;fill-rule:nonzero}
    .fil1 {fill:#D66767;fill-rule:nonzero}
   ]]>
  </style>
 </defs>
 <g id="Слой_x0020_1">
  <metadata id="CorelCorpID_0Corel-Layer"/>
  <g id="_2909151920960">
   <path class="fil0" d="M622.55 572.35l0 -80.6 -42.02 0c-4.75,-21.71 -13.27,-42.02 -24.9,-60.13l29.66 -29.73 -56.93 -56.93 -29.73 29.73c-18.1,-11.71 -38.42,-20.23 -60.13,-24.99l0 -42.02 -80.6 0 0 42.02c-21.71,4.75 -42.02,13.27 -60.12,24.99l-29.73 -29.73 -56.93 56.93 29.65 29.73c-11.63,18.1 -20.15,38.42 -24.9,60.13l-42.02 0 0 80.6 42.02 0c4.76,21.71 13.27,42.02 24.99,60.12l-29.73 29.74 56.93 57.01 29.73 -29.74c18.1,11.63 38.42,20.15 60.12,24.9l0 42.02 80.6 0 0 -42.02c21.71,-4.76 42.02,-13.27 60.13,-24.9l29.73 29.74 56.93 -57.01 -29.74 -29.74c11.71,-18.1 20.23,-38.42 24.99,-60.12l42.02 0zm-121.06 6.06l0 0c-11.39,25.31 -31.7,45.62 -57.01,56.93 -1.97,0.9 -3.93,1.72 -5.98,2.46 -12.53,4.83 -26.13,7.45 -40.3,7.45 -14.17,0 -27.77,-2.62 -40.31,-7.45 -2.04,-0.74 -4.01,-1.56 -5.98,-2.46 -25.31,-11.31 -45.62,-31.62 -57.01,-56.93 -0.9,-1.97 -1.72,-4.02 -2.46,-6.06 -4.83,-12.54 -7.45,-26.13 -7.45,-40.3 0,-14.17 2.62,-27.77 7.45,-40.3 0.74,-2.05 1.55,-4.1 2.46,-6.06 11.39,-25.23 31.7,-45.55 56.93,-56.93 1.97,-0.9 4.02,-1.72 6.06,-2.46 12.54,-4.83 26.13,-7.45 40.31,-7.45 14.17,0 27.77,2.62 40.3,7.45 2.05,0.74 4.1,1.56 6.06,2.46 25.23,11.39 45.54,31.7 56.93,56.93 0.9,1.96 1.72,4.01 2.46,6.06 4.83,12.53 7.45,26.13 7.45,40.3 0,14.17 -2.62,27.77 -7.45,40.3 -0.74,2.04 -1.56,4.09 -2.46,6.06z"/>
   <path class="fil1" d="M230.15 76.19l-21.82 -36.05 -18.79 11.38c-8,-8.42 -17.31,-15.2 -27.42,-20.15l5.21 -21.32 -40.87 -10.05 -5.25 21.35c-11.27,-0.34 -22.66,1.35 -33.65,5.1l-11.37 -18.79 -36.05 21.82 11.38 18.79c-8.42,8 -15.2,17.31 -20.13,27.45l-21.35 -5.25 -10.05 40.87 21.31 5.27c-0.3,11.24 1.39,22.63 5.14,33.63l-18.79 11.37 21.82 36.05 18.79 -11.37c8,8.42 17.31,15.2 27.45,20.12l-5.25 21.35 40.89 10.08 5.25 -21.35c11.24,0.3 22.64,-1.39 33.63,-5.14l11.38 18.79 36.05 -21.82 -11.38 -18.8c8.42,-8 15.2,-17.31 20.15,-27.41l21.34 5.25 10.03 -40.91 -21.35 -5.25c0.34,-11.26 -1.35,-22.66 -5.11,-33.65l18.79 -11.38zm-52.5 35.49l0 0c1.76,14.4 -1.82,28.99 -10.08,40.89 -0.64,0.94 -1.29,1.83 -2.01,2.72 -4.3,5.55 -9.67,10.41 -16,14.25 -6.34,3.83 -13.13,6.34 -20.04,7.58 -1.12,0.23 -2.22,0.39 -3.34,0.52 -14.38,1.8 -28.96,-1.79 -40.91,-10.02 -0.94,-0.63 -1.86,-1.33 -2.74,-2.04 -5.55,-4.3 -10.41,-9.67 -14.24,-16 -3.83,-6.34 -6.35,-13.13 -7.58,-20.05 -0.23,-1.11 -0.41,-2.25 -0.54,-3.37 -1.74,-14.37 1.85,-28.95 10.05,-40.87 0.64,-0.94 1.33,-1.86 2.05,-2.74 4.3,-5.55 9.67,-10.41 16,-14.24 6.33,-3.83 13.13,-6.35 20.04,-7.58 1.11,-0.22 2.26,-0.41 3.38,-0.54 14.37,-1.74 28.95,1.85 40.87,10.04 0.93,0.64 1.85,1.33 2.74,2.05 5.55,4.3 10.41,9.67 14.24,16.01 3.84,6.33 6.35,13.13 7.58,20.04 0.23,1.11 0.41,2.25 0.54,3.37z"/>
  </g>
 </g>
</svg>
