<svg width="36" height="33" viewBox="0 0 36 33" fill="none" xmlns="http://www.w3.org/2000/svg">
<path d="M28.9116 23.663C27.85 21.6641 25.2323 20.9769 23.065 22.128C20.8976 23.2791 20.0013 25.8327 21.063 27.8317C22.1246 29.8306 24.7423 30.5178 26.9096 29.3667C29.077 28.2155 29.9733 25.6619 28.9116 23.663Z" fill="#E32821"/>
<path d="M22.3193 17.9965L17.9015 22.147C17.9015 22.147 17.0306 21.4551 16.6809 20.8558C16.2427 20.1047 16.05 19.5299 16.0099 18.6612C15.9558 17.4909 16.6521 15.7308 16.6521 15.7308C16.6521 15.7308 17.7978 13.3586 17.5084 11.8235C17.3787 11.1361 17.334 10.6749 16.8731 10.1487C16.4738 9.69299 16.2682 9.55269 15.6883 9.37718C14.9328 9.14855 14.4404 9.28222 13.6684 9.44639C12.0646 9.78742 10.1569 11.748 10.1569 11.748C10.1569 11.748 9.5142 12.8372 9.25058 13.5969C8.99452 14.3348 8.85308 14.7701 8.82244 15.5505C8.79826 16.1662 8.97953 17.1205 8.97953 17.1205L3.55523 19.003C3.55523 19.003 2.79251 17.3742 2.65579 16.2465C2.42133 14.3126 2.86769 13.1136 3.72616 11.3624C4.49399 9.79617 6.49528 7.87437 6.49528 7.87437C6.49528 7.87437 8.43348 5.96243 9.80777 5.01725C11.3656 3.94581 12.1895 3.49176 14.2757 2.92521C15.621 2.55982 16.2864 2.43658 17.665 2.64426C19.0024 2.84573 19.8318 3.04373 20.9054 3.86627C22.207 4.86348 22.7445 5.83245 23.1324 7.42553C23.5507 9.14307 22.6473 11.926 22.6473 11.926C22.6473 11.926 21.3335 14.5996 21.684 16.3217C21.8235 17.0072 22.3193 17.9965 22.3193 17.9965Z" fill="#E32821" stroke="#E32821"/>
</svg>
