<svg width="28" height="32" viewBox="0 0 28 32" fill="none" xmlns="http://www.w3.org/2000/svg">
<path d="M8.87609 28.6526C10.6014 27.1876 10.7123 24.4835 9.12392 22.6128C7.5355 20.7422 4.84921 20.4133 3.12392 21.8782C1.39863 23.3432 1.28767 26.0473 2.87609 27.918C4.4645 29.7886 7.1508 30.1175 8.87609 28.6526Z" fill="#00A75F"/>
<path d="M13 21L8 17.5731C8 17.5731 8.48942 16.5743 9 16.1044C9.6399 15.5156 10.16 15.2043 11 14.9791C12.1316 14.6758 14 14.9791 14 14.9791C14 14.9791 16.5625 15.5905 18 14.9791C18.6437 14.7053 19.0847 14.5629 19.5 14C19.8597 13.5124 19.9527 13.2816 20 12.6775C20.0616 11.8907 19.8256 11.4383 19.5 10.7193C18.8235 9.2257 16.5 7.78195 16.5 7.78195C16.5 7.78195 15.2985 7.38728 14.5 7.29239C13.7244 7.20023 13.2689 7.15525 12.5 7.29239C11.8934 7.40059 11 7.78195 11 7.78195L8 2.88638C8 2.88638 9.42777 1.79265 10.5 1.41771C12.3389 0.774685 13.6057 0.954017 15.5 1.41771C17.1943 1.83244 19.5 3.37594 19.5 3.37594C19.5 3.37594 21.7825 4.85991 23 6C24.3801 7.29239 25 8 26 9.91646C26.6449 11.1524 26.9078 11.776 27 13.1671C27.0895 14.5166 27.0737 15.3692 26.5 16.594C25.8045 18.0788 24.9731 18.8113 23.5 19.5313C21.9118 20.3076 19 20.0209 19 20.0209C19 20.0209 16.1071 19.3099 14.5 20.0209C13.8603 20.3039 13 21 13 21Z" fill="#00A75F" stroke="#00A75F"/>
</svg>
