<svg width="28" height="32" viewBox="0 0 28 32" fill="none" xmlns="http://www.w3.org/2000/svg">
<path d="M8.89766 28.7248C10.635 27.2741 10.7682 24.571 9.19527 22.6873C7.62232 20.8036 4.93883 20.4526 3.20152 21.9033C1.46421 23.354 1.33097 26.057 2.90391 27.9408C4.47686 29.8245 7.16035 30.1755 8.89766 28.7248Z" fill="#0A4571"/>
<path d="M13.0845 21.1065L8.11296 17.6385C8.11296 17.6385 8.61059 16.6437 9.12503 16.1781C9.76976 15.5945 10.2924 15.2875 11.1342 15.0693C12.2683 14.7753 14.1341 15.094 14.1341 15.094C14.1341 15.094 16.6915 15.7265 18.134 15.127C18.78 14.8586 19.2221 14.7198 19.642 14.1603C20.0057 13.6757 20.1006 13.4456 20.1529 12.842C20.221 12.0557 19.9887 11.6013 19.6691 10.8797C19.0049 9.38059 16.6934 7.91774 16.6934 7.91774C16.6934 7.91774 15.4952 7.51317 14.6975 7.41171C13.9227 7.31316 13.4676 7.26443 12.6975 7.39522C12.0901 7.49841 11.1936 7.8724 11.1936 7.8724L8.23402 2.95226C8.23402 2.95226 9.67076 1.87034 10.746 1.50425C12.5901 0.876407 13.8554 1.06618 15.7459 1.54547C17.4367 1.97415 19.7296 3.5366 19.7296 3.5366C19.7296 3.5366 21.9998 5.03934 23.2078 6.18943C24.5773 7.49316 25.1913 8.20585 26.1755 10.1305C26.8102 11.3717 27.0679 11.9975 27.1486 13.3892C27.227 14.7394 27.2041 15.5919 26.6204 16.8119C25.9127 18.291 25.0753 19.0166 23.5963 19.7244C22.0018 20.4875 19.0924 20.1769 19.0924 20.1769C19.0924 20.1769 16.2055 19.442 14.5926 20.1398C13.9505 20.4175 13.0845 21.1065 13.0845 21.1065Z" fill="#0A4571" stroke="#0A4571"/>
</svg>
