<svg width="41" height="41" viewBox="0 0 41 41" fill="none" xmlns="http://www.w3.org/2000/svg">
<path d="M25.8509 32.3867C26.0314 30.1306 24.1946 28.143 21.7483 27.9473C19.302 27.7517 17.1726 29.422 16.9922 31.6781C16.8117 33.9343 18.6485 35.9219 21.0948 36.1176C23.541 36.3132 25.6704 34.6429 25.8509 32.3867Z" fill="#FF99B2"/>
<path d="M23.3424 24.0635L17.3855 25.1854C17.3855 25.1854 17.0236 24.1337 17.0513 23.4403C17.086 22.5714 17.2327 21.9833 17.6663 21.2294C18.2503 20.2138 19.7842 19.1047 19.7842 19.1047C19.7842 19.1047 22.0262 17.7214 22.6081 16.2717C22.8686 15.6225 23.0791 15.2097 22.9736 14.5182C22.8822 13.9192 22.7844 13.6903 22.3899 13.2304C21.8762 12.6313 21.3892 12.479 20.6501 12.2021C19.1147 11.6267 16.4518 12.2531 16.4518 12.2531C16.4518 12.2531 15.3241 12.8254 14.6931 13.324C14.0803 13.8082 13.7269 14.099 13.2812 14.7404C12.9296 15.2464 12.569 16.1484 12.569 16.1484L6.9838 14.817C6.9838 14.817 7.21715 13.0336 7.70857 12.0095C8.55135 10.2532 9.57269 9.48261 11.2384 8.46834C12.7283 7.56114 15.4492 7.01784 15.4492 7.01784C15.4492 7.01784 18.1116 6.44891 19.7786 6.39153C21.6682 6.32649 22.607 6.38701 24.6703 7.03174C26.001 7.44754 26.6282 7.70165 27.6785 8.61836C28.6974 9.50768 29.2901 10.1208 29.7526 11.3918C30.3132 12.9326 30.245 14.0386 29.715 15.5902C29.1435 17.263 26.8848 19.1229 26.8848 19.1229C26.8848 19.1229 24.3389 20.6698 23.7079 22.3099C23.4568 22.9628 23.3424 24.0635 23.3424 24.0635Z" fill="#FF99B2" stroke="#FF99B2"/>
</svg>
